<svg width="14" height="13" viewBox="0 0 14 13" fill="none" xmlns="http://www.w3.org/2000/svg">
<g id="Frame">
<g clip-path="url(#clip0_562_53)">
<path id="Vector" d="M13.1331 6.66247C13.1331 3.31256 10.4189 0.598389 7.06897 0.598389C3.71905 0.598389 1.00488 3.31256 1.00488 6.66247C1.00488 9.68914 3.22243 12.1979 6.12145 12.6532V8.41544H4.58098V6.66247H6.12145V5.32642C6.12145 3.80673 7.02618 2.96729 8.41187 2.96729C9.0755 2.96729 9.76944 3.08564 9.76944 3.08564V4.57721H9.00458C8.25146 4.57721 8.01648 5.04473 8.01648 5.52424V6.66247H9.69829L9.42932 8.41544H8.01648V12.6532C10.9155 12.1979 13.1331 9.68914 13.1331 6.66247Z" fill="black"/>
</g>
</g>
<defs>
<clipPath id="clip0_562_53">
<path d="M0.80957 0.403076H13.329V12.9225H0.80957V0.403076Z" fill="white"/>
</clipPath>
</defs>
</svg>
