<svg width="12" height="13" viewBox="0 0 12 13" fill="none" xmlns="http://www.w3.org/2000/svg">
<g id="Frame">
<g clip-path="url(#clip0_562_49)">
<path id="Vector" d="M11.0119 1.18506H1.61986C1.18951 1.18506 0.839844 1.53961 0.839844 1.97486V11.3497C0.839844 11.785 1.18951 12.1395 1.61986 12.1395H11.0119C11.4422 12.1395 11.7943 11.785 11.7943 11.3497V1.97486C11.7943 1.53961 11.4422 1.18506 11.0119 1.18506ZM4.15064 10.5746H2.52703V5.34678H4.15308V10.5746H4.15064ZM3.33883 4.63278C2.81801 4.63278 2.39743 4.20977 2.39743 3.69138C2.39743 3.173 2.81801 2.74998 3.33883 2.74998C3.85722 2.74998 4.28023 3.173 4.28023 3.69138C4.28023 4.21221 3.85966 4.63278 3.33883 4.63278ZM10.2367 10.5746H8.61312V8.03161C8.61312 7.4252 8.60089 6.64518 7.76953 6.64518C6.92349 6.64518 6.7939 7.30538 6.7939 7.98759V10.5746H5.17029V5.34678H6.72787V6.06078H6.74988C6.9675 5.64999 7.49811 5.21719 8.28791 5.21719C9.93108 5.21719 10.2367 6.30041 10.2367 7.70884V10.5746Z" fill="black"/>
</g>
</g>
<defs>
<clipPath id="clip0_562_49">
<path d="M0.839844 0.403076H11.7943V12.9225H0.839844V0.403076Z" fill="white"/>
</clipPath>
</defs>
</svg>
