<svg width="27" height="27" viewBox="0 0 27 27" fill="none" xmlns="http://www.w3.org/2000/svg">
<g id="Frame">
<g clip-path="url(#clip0_136_414)">
<path id="Vector" d="M13.5 2.53099C7.4408 2.53099 2.53124 7.44055 2.53124 13.4997V15.6091C2.53124 16.3104 1.96699 16.8747 1.26562 16.8747C0.564256 16.8747 0 16.3104 0 15.6091V13.4997C0 6.04309 6.04334 -0.00024939 13.5 -0.00024939C20.9566 -0.00024939 26.9999 6.04309 26.9999 13.4997V21.0987C26.9999 23.6616 24.9222 25.7393 22.354 25.7393L16.5374 25.734C16.0998 26.4881 15.2824 26.9997 14.3437 26.9997H12.6562C11.2588 26.9997 10.125 25.8659 10.125 24.4684C10.125 23.071 11.2588 21.9372 12.6562 21.9372H14.3437C15.2824 21.9372 16.0998 22.4487 16.5374 23.2028L22.3593 23.2081C23.5247 23.2081 24.4687 22.2641 24.4687 21.0987V13.4997C24.4687 7.44055 19.5591 2.53099 13.5 2.53099ZM7.59373 10.9685H8.43747C9.37087 10.9685 10.125 11.7226 10.125 12.656V18.5622C10.125 19.4956 9.37087 20.2497 8.43747 20.2497H7.59373C5.73221 20.2497 4.21874 18.7362 4.21874 16.8747V14.3435C4.21874 12.4819 5.73221 10.9685 7.59373 10.9685ZM19.4062 10.9685C21.2677 10.9685 22.7812 12.4819 22.7812 14.3435V16.8747C22.7812 18.7362 21.2677 20.2497 19.4062 20.2497H18.5624C17.629 20.2497 16.8749 19.4956 16.8749 18.5622V12.656C16.8749 11.7226 17.629 10.9685 18.5624 10.9685H19.4062Z" fill="black"/>
</g>
</g>
<defs>
<clipPath id="clip0_136_414">
<path d="M0 0H26.9999V26.9999H0V0Z" fill="white"/>
</clipPath>
</defs>
</svg>
