<svg width="21" height="21" viewBox="0 0 21 21" fill="none" xmlns="http://www.w3.org/2000/svg">
<g id="Frame">
<g clip-path="url(#clip0_136_286)">
<path id="Vector" d="M20.67 10.4986C20.67 4.87948 16.1173 0.326731 10.4981 0.326731C4.87898 0.326731 0.326235 4.87948 0.326235 10.4986C0.326235 15.5756 4.04595 19.7838 8.90878 20.5475V13.4391H6.32479V10.4986H8.90878V8.25754C8.90878 5.70841 10.4264 4.30034 12.7507 4.30034C13.8639 4.30034 15.0279 4.49885 15.0279 4.49885V7.00081H13.7449C12.4817 7.00081 12.0875 7.78504 12.0875 8.58935V10.4986H14.9086L14.4574 13.4391H12.0875V20.5475C16.9503 19.7838 20.67 15.5756 20.67 10.4986Z" fill="black"/>
</g>
</g>
<defs>
<clipPath id="clip0_136_286">
<path d="M0 0L21.0001 0V21.0001H0L0 0Z" fill="white"/>
</clipPath>
</defs>
</svg>
