<svg width="27" height="27" viewBox="0 0 27 27" fill="none" xmlns="http://www.w3.org/2000/svg">
<g id="Frame">
<g clip-path="url(#clip0_136_434)">
<path id="Vector" d="M13.499 2.53124C7.4398 2.53124 2.53024 7.4408 2.53024 13.5V15.6093C2.53024 16.3107 1.96599 16.8749 1.26462 16.8749C0.563258 16.8749 -0.000997562 16.3107 -0.000997562 15.6093V13.5C-0.000997562 6.04334 6.04234 0 13.499 0C20.9556 0 26.9989 6.04334 26.9989 13.5V21.099C26.9989 23.6618 24.9212 25.7396 22.353 25.7396L16.5364 25.7343C16.0988 26.4884 15.2814 26.9999 14.3427 26.9999H12.6552C11.2578 26.9999 10.124 25.8661 10.124 24.4687C10.124 23.0712 11.2578 21.9374 12.6552 21.9374H14.3427C15.2814 21.9374 16.0988 22.449 16.5364 23.203L22.3583 23.2083C23.5237 23.2083 24.4677 22.2644 24.4677 21.099V13.5C24.4677 7.4408 19.5581 2.53124 13.499 2.53124ZM7.59273 10.9687H8.43648C9.36987 10.9687 10.124 11.7228 10.124 12.6562V18.5624C10.124 19.4958 9.36987 20.2499 8.43648 20.2499H7.59273C5.73121 20.2499 4.21774 18.7365 4.21774 16.8749V14.3437C4.21774 12.4822 5.73121 10.9687 7.59273 10.9687ZM19.4052 10.9687C21.2667 10.9687 22.7802 12.4822 22.7802 14.3437V16.8749C22.7802 18.7365 21.2667 20.2499 19.4052 20.2499H18.5614C17.628 20.2499 16.8739 19.4958 16.8739 18.5624V12.6562C16.8739 11.7228 17.628 10.9687 18.5614 10.9687H19.4052Z" fill="black"/>
</g>
</g>
<defs>
<clipPath id="clip0_136_434">
<path d="M0 0H26.9999V26.9999H0V0Z" fill="white"/>
</clipPath>
</defs>
</svg>
