<svg width="19" height="21" viewBox="0 0 19 21" fill="none" xmlns="http://www.w3.org/2000/svg">
<g id="Frame">
<g clip-path="url(#clip0_136_282)">
<path id="Vector" d="M17.0616 1.31188H1.30741C0.585534 1.31188 -0.000991595 1.90661 -0.000991595 2.63669L-0.000991595 18.3621C-0.000991595 19.0922 0.585534 19.6869 1.30741 19.6869H17.0616C17.7834 19.6869 18.3741 19.0922 18.3741 18.3621V2.63669C18.3741 1.90661 17.7834 1.31188 17.0616 1.31188ZM5.55254 17.0619H2.8291V8.29276H5.55664V17.0619H5.55254ZM4.19082 7.0951C3.31718 7.0951 2.61171 6.38553 2.61171 5.51599C2.61171 4.64646 3.31718 3.93689 4.19082 3.93689C5.06035 3.93689 5.76992 4.64646 5.76992 5.51599C5.76992 6.38963 5.06445 7.0951 4.19082 7.0951ZM15.7614 17.0619H13.0379V12.7963C13.0379 11.7791 13.0174 10.4707 11.6229 10.4707C10.2037 10.4707 9.98634 11.5781 9.98634 12.7225V17.0619H7.2629V8.29276H9.8756V9.49042H9.91251C10.2776 8.80136 11.1676 8.07538 12.4924 8.07538C15.2487 8.07538 15.7614 9.89237 15.7614 12.2549V17.0619Z" fill="black"/>
</g>
</g>
<defs>
<clipPath id="clip0_136_282">
<path d="M0 0L18.3751 0V21.0001H0L0 0Z" fill="white"/>
</clipPath>
</defs>
</svg>
