<svg width="18" height="8" viewBox="0 0 18 8" fill="none" xmlns="http://www.w3.org/2000/svg">
<path id="Vector" d="M15.9026 0.338284C15.7693 0.250715 15.6402 0.184034 15.5257 0.131814C15.4146 0.0812008 15.318 0.0434418 15.2436 0.0121097C15.159 -0.0248461 15.0778 0.0265706 15.0829 0.114943C15.1932 2.17964 14.4624 3.44658 13.0923 4.52714C11.9503 5.42693 10.393 6.22308 7.80915 6.61514H7.79633C7.47751 6.66334 7.14417 6.70512 6.79373 6.73966C5.73215 6.84651 4.66288 6.78144 3.84233 6.61594C1.36532 6.11623 -0.184313 4.69344 1.14907 3.57914C1.2619 3.48434 1.1277 3.32849 1.00633 3.41284C-0.671511 4.56811 0.0763808 5.45264 0.896924 6.13793C1.11232 6.31788 1.65251 6.62237 1.65251 6.62237C4.18594 7.8877 9.27331 7.72783 13.0683 6.68583C13.1512 6.66254 13.2333 6.63924 13.3145 6.61835V6.61594C17.3591 5.4438 20.0959 3.12121 15.9026 0.338284Z" fill="#231F20"/>
</svg>
