<svg width="82" height="20" viewBox="0 0 82 20" fill="none" xmlns="http://www.w3.org/2000/svg">
<g id="Group">
<path id="Vector" d="M45.9483 4.94828C46.1839 4.94828 46.1839 4.71265 46.1839 4.71265V4.00575C46.1839 3.77012 45.9483 3.77012 45.9483 3.77012C40.5288 3.77012 40.5288 4.94828 40.5288 5.65517V12.0172C40.5288 12.2529 40.7644 12.2529 40.7644 12.2529H42.8851C43.1207 12.2529 43.1207 12.0172 43.1207 12.0172V6.12644C43.1207 5.65518 43.1207 4.94828 45.9483 4.94828ZM24.5058 10.6035V5.65517C24.5058 4.94828 24.5058 3.77012 19.0862 3.77012C13.6667 3.77012 13.6667 4.94828 13.6667 5.65517V6.12644C13.6667 6.36207 13.9023 6.36207 13.9023 6.36207H16.023C16.2586 6.36207 16.2586 6.12644 16.2586 6.12644C16.2586 5.89081 16.2586 5.18391 18.615 5.18391C21.2069 5.18391 21.2069 5.89081 21.2069 6.12644V7.54024C20.9713 7.3046 20.0287 7.3046 19.0862 7.3046C13.6667 7.3046 13.6667 8.48276 13.6667 9.18966V10.6035C13.6667 11.3104 13.6667 12.4885 19.0862 12.4885C24.5058 12.4885 24.5058 11.3104 24.5058 10.6035ZM21.4425 10.1322C21.4425 10.3678 21.4425 11.0747 18.8506 11.0747C16.2586 11.0747 16.2586 10.3678 16.2586 10.1322V9.66093C16.2586 9.42529 16.2586 8.7184 18.8506 8.7184C21.4425 8.7184 21.4425 9.42529 21.4425 9.66093V10.1322ZM37.9368 10.3678V5.41955C37.9368 4.71265 37.9368 3.53448 32.5173 3.53448C31.3391 3.53448 30.6322 3.53449 29.9253 3.77012V0.471266C29.9253 0.235634 29.6897 0.235633 29.6897 0.235633H27.569C27.3333 0.235633 27.3333 0.471266 27.3333 0.471266V10.3678C27.3333 11.0747 27.3333 12.2529 32.7529 12.2529C37.9368 12.2529 37.9368 10.8391 37.9368 10.3678ZM29.6897 10.1322V6.12644C29.6897 5.89081 29.6897 5.18391 32.2816 5.18391C34.8736 5.18391 34.8736 5.89081 34.8736 6.12644V10.1322C34.8736 10.3678 34.8736 11.0747 32.2816 11.0747C29.6897 11.0747 29.6897 10.3678 29.6897 10.1322ZM52.3104 12.4885C57.7299 12.4885 57.7299 11.3104 57.7299 10.6035V5.65517C57.7299 4.94828 57.7299 3.77012 52.3104 3.77012C46.8908 3.77012 46.8908 4.94828 46.8908 5.65517V6.12644C46.8908 6.36207 47.1265 6.36207 47.1265 6.36207H49.7184C49.954 6.36207 49.954 6.12644 49.954 6.12644C49.954 5.89081 49.954 5.18391 52.3104 5.18391C54.9023 5.18391 54.9023 5.89081 54.9023 6.12644V7.54024C54.4311 7.3046 53.4885 7.3046 52.3104 7.3046C46.8908 7.3046 46.8908 8.48276 46.8908 9.18966V10.6035C46.8908 11.3104 46.8908 12.4885 52.3104 12.4885ZM49.954 9.66093C49.954 9.42529 49.954 8.7184 52.546 8.7184C55.138 8.7184 55.138 9.42529 55.138 9.66093V10.1322C55.138 10.3678 55.138 11.0747 52.546 11.0747C49.954 11.0747 49.954 10.3678 49.954 10.1322V9.66093ZM10.8391 0.471266H8.48276C8.24713 0.471266 8.24713 0.7069 8.24713 0.7069V10.1322C8.24713 10.3678 8.24713 11.0747 5.65518 11.0747C3.06322 11.0747 3.06322 10.6035 3.06322 10.1322V9.66093C3.06322 9.42529 2.82759 9.42529 2.82759 9.42529H0.235632C-2.28228e-07 9.42529 0 9.66093 0 9.66093V10.6035C0 11.3104 -5.61791e-07 12.4885 5.41954 12.4885C10.8391 12.4885 10.8391 11.3104 10.8391 10.6035V0.7069C11.0747 0.471267 10.8391 0.471266 10.8391 0.471266ZM0.942529 16.9655H0.235632C0.235632 16.9655 0 16.9655 0 17.2012V19.0862C0 19.3219 -2.28228e-07 19.3219 0.235632 19.3219H0.942529C0.942529 19.3219 1.17816 19.3219 1.17816 19.0862L0.942529 16.9655ZM5.41954 16.9655H4.24138C4.00575 16.9655 4.00575 16.9655 4.00575 17.2012V19.0862C4.00575 19.3219 4.00575 19.3219 4.24138 19.3219H5.18391C5.41954 19.3219 5.41954 19.3219 5.41954 19.0862V16.9655ZM9.18966 16.9655H8.24713C8.24713 16.9655 8.0115 16.9655 8.0115 17.2012V19.0862C8.0115 19.3219 8.0115 19.3219 8.24713 19.3219H9.18966C9.18966 19.3219 9.42529 19.3219 9.42529 19.0862L9.18966 16.9655ZM13.1954 16.9655H12.0172C11.7816 16.9655 11.7816 16.9655 11.7816 17.2012V19.0862C11.7816 19.3219 11.7816 19.3219 12.0172 19.3219H13.1954C13.431 19.3219 13.431 19.3219 13.431 19.0862L13.1954 16.9655C13.431 16.9655 13.431 16.9655 13.1954 16.9655ZM17.4368 16.9655H16.023C16.023 16.9655 15.7874 16.9655 15.7874 17.2012V19.0862C15.7874 19.3219 15.7874 19.3219 16.023 19.3219H17.2012C17.2012 19.3219 17.4368 19.3219 17.4368 19.0862V17.2012C17.6724 16.9655 17.4368 16.9655 17.4368 16.9655ZM21.4425 16.9655H19.7931C19.5575 16.9655 19.5575 17.2012 19.5575 17.2012V19.0862C19.5575 19.3219 19.7931 19.3219 19.7931 19.3219H21.4425C21.6782 19.3219 21.6782 19.0862 21.6782 19.0862V17.2012C21.6782 16.9655 21.6782 16.9655 21.4425 16.9655ZM25.2127 16.9655H23.7989C23.5632 16.9655 23.5632 17.2012 23.5632 17.2012V19.0862C23.5632 19.3219 23.5632 19.3219 23.7989 19.3219H25.4483C25.6839 19.3219 25.6839 19.0862 25.6839 19.0862V17.2012C25.4483 16.9655 25.4483 16.9655 25.2127 16.9655ZM29.454 16.9655H27.569C27.3333 16.9655 27.3333 17.2012 27.3333 17.2012V19.0862C27.3333 19.3219 27.569 19.3219 27.569 19.3219H29.454C29.6897 19.3219 29.6897 19.0862 29.6897 19.0862V17.2012C29.6897 16.9655 29.454 16.9655 29.454 16.9655ZM33.4598 16.9655H31.5747C31.3391 16.9655 31.3391 17.2012 31.3391 17.2012V19.0862C31.3391 19.3219 31.5747 19.3219 31.5747 19.3219H33.4598C33.6954 19.3219 33.6954 19.0862 33.6954 19.0862V17.2012C33.6954 16.9655 33.6954 16.9655 33.4598 16.9655ZM37.7012 16.9655H35.8161C35.5805 16.9655 35.5805 17.2012 35.5805 17.2012V19.0862C35.5805 19.3219 35.5805 19.3219 35.8161 19.3219H37.7012C37.9368 19.3219 37.9368 19.0862 37.9368 19.0862V17.2012L37.7012 16.9655ZM41.7069 16.9655H39.5862C39.3506 16.9655 39.3506 17.2012 39.3506 17.2012V19.0862C39.3506 19.3219 39.5862 19.3219 39.5862 19.3219H41.7069C41.9426 19.3219 41.9426 19.0862 41.9426 19.0862V17.2012C42.1782 17.2012 41.9426 16.9655 41.7069 16.9655ZM71.3966 16.9655H43.592C43.3563 16.9655 43.1207 17.2012 43.1207 17.4368V18.8506C43.1207 19.0862 43.3563 19.3219 43.592 19.3219H71.3966C71.6322 19.3219 71.8678 19.0862 71.8678 18.8506V17.4368C72.1035 17.2012 71.8678 16.9655 71.3966 16.9655ZM81.2931 0C80.8219 0 80.5862 0.235635 80.5862 0.7069V5.65517C80.5862 5.89081 80.3506 5.89081 80.3506 5.65517L74.9311 0.235633C74.6954 8.95355e-07 74.4598 8.95355e-07 73.9885 0.235633C73.7529 0.471266 73.7529 0.706896 73.7529 0.942528V7.77587C73.7529 8.24713 73.9885 8.48276 74.4598 8.48276C74.9311 8.48276 75.1667 8.24713 75.1667 7.77587V2.82759C75.1667 2.59196 75.4023 2.59196 75.4023 2.82759L80.8219 8.24713C81.0575 8.48276 81.0575 8.48276 81.2931 8.48276C81.5288 8.48276 81.5288 8.48276 81.7644 8.48276C82 8.24713 82 8.0115 82 7.77587V0.942528C82 0.471264 81.7644 0 81.2931 0ZM71.3966 3.53448H69.2759C68.8046 3.53448 68.569 3.77012 68.569 4.24138C68.569 4.71265 68.8046 4.94828 69.2759 4.94828H70.4541C70.4541 4.94828 70.6897 4.94828 70.6897 5.18391V6.83334C70.6897 6.83334 70.6897 7.06897 70.4541 7.06897H67.8621C66.2127 7.06897 65.0345 5.65518 65.0345 4.24138C65.0345 2.82759 66.2127 1.64943 67.8621 1.64943H71.1609C71.6322 1.64943 71.8678 1.41379 71.8678 0.942528C71.8678 0.471264 71.6322 0.235633 71.1609 0.235633H67.8621C65.7414 0.235633 63.8564 1.88506 63.6207 4.24138C63.3851 6.59771 65.5058 8.48276 67.6265 8.48276H71.1609C71.6322 8.48276 71.8678 8.24713 71.8678 7.77587V4.24138C72.1035 3.77012 71.6322 3.53448 71.3966 3.53448Z" fill="black"/>
</g>
</svg>
