<svg width="118" height="18" viewBox="0 0 118 18" fill="none" xmlns="http://www.w3.org/2000/svg">
<path id="Vector" d="M97.4316 0.54927L97.6573 13.4585H97.5442L93.7126 0.54927H87.4011V16.8093H91.5709L91.3458 3.46097H91.4588L95.5721 16.8093H101.602V0.54927H97.4316ZM18.0324 0.54927L14.8768 16.9746H19.4415L21.7518 2.03268H21.8644L24.1187 16.9742H28.6268L25.5273 0.54927H18.0324ZM43.5032 0.54927L41.4185 13.0742H41.3054L39.2207 0.54927H32.3458L32.0075 16.9746H36.2339L36.3469 2.19708H36.403L39.2202 16.9742H43.5032L46.3209 2.19756H46.434L46.5461 16.9742H50.7724L50.3781 0.54927H43.5032ZM7.77669 12.3049C7.94533 12.6893 7.88928 13.239 7.83274 13.5137C7.72015 14.0629 7.32583 14.6122 6.19844 14.6122C5.12808 14.6122 4.50809 14.0083 4.50809 13.1288V11.5361H0L0 12.7995C0 16.48 2.98638 17.5785 6.14239 17.5785C9.18532 17.5785 11.7208 16.5346 12.1156 13.8429C12.3408 12.4146 12.1717 11.481 12.1156 11.1512C11.3265 7.69073 4.9029 6.70195 4.45155 4.77903C4.3955 4.44927 4.3955 4.12 4.45155 3.90001C4.56463 3.35074 4.95895 2.80147 5.97326 2.80147C6.98757 2.80147 7.55151 3.40538 7.55151 4.28488V5.27366H11.7774V4.12C11.7774 0.54927 8.45273 0 6.08585 0C3.09947 0 0.619992 0.988781 0.169133 3.62537C0.05605 4.33952 0 4.99902 0.225183 5.82293C0.901717 9.22878 6.93201 10.2176 7.77669 12.3049ZM62.6069 12.3049C62.7755 12.6898 62.719 13.1839 62.6629 13.5137C62.5498 14.0629 62.1555 14.6122 61.0286 14.6122C59.9578 14.6122 59.3383 14.0083 59.3383 13.1288V11.5361H54.8297V12.7995C54.8297 16.4249 57.76 17.5239 60.916 17.5239C63.9589 17.5239 66.4384 16.5351 66.8327 13.7883C67.0584 12.36 66.8893 11.481 66.8327 11.0966C66.1567 7.69073 59.7886 6.64683 59.3383 4.77951C59.2817 4.44975 59.2817 4.12 59.3383 3.90001C59.4509 3.35074 59.8452 2.80147 60.8595 2.80147C61.8172 2.80147 62.4377 3.40538 62.4377 4.28488V5.27366H66.6071V4.12C66.6071 0.54927 63.339 0 60.9726 0C57.9857 0 55.5623 0.933663 55.1119 3.62537C54.9988 4.33952 54.9988 4.99902 55.1679 5.82293C55.8445 9.22878 61.7612 10.1624 62.6069 12.3049ZM76.8072 14.5024C77.9906 14.5024 78.3284 13.7332 78.441 13.2937C78.4975 13.1293 78.4975 12.8542 78.4975 12.6898V0.54927H82.7799V12.36C82.7799 12.6898 82.7799 13.2937 82.7239 13.4585C82.4422 16.5351 79.9627 17.5239 76.8632 17.5239C73.7642 17.5239 71.2848 16.5351 71.0026 13.4585C71.0026 13.2937 70.9465 12.6898 70.9465 12.36V0.54927H75.2289V12.6898C75.2289 12.9093 75.2289 13.1288 75.2855 13.2937C75.2855 13.7332 75.6237 14.5024 76.8072 14.5024ZM111.97 14.3376C113.21 14.3376 113.604 13.5683 113.717 13.1288C113.774 12.9644 113.774 12.6893 113.774 12.5249V10.1624H112.027V7.74537H118V12.1405C118 12.4698 118 12.6893 117.943 13.239C117.662 16.26 115.013 17.3039 112.027 17.3039C109.04 17.3039 106.392 16.26 106.11 13.239C106.053 12.6893 106.053 12.4698 106.053 12.14V5.21902C106.053 4.94391 106.11 4.39464 106.11 4.12C106.504 1.04342 109.04 0.0546405 112.027 0.0546405C115.013 0.0546405 117.606 1.04342 117.943 4.12C118 4.61415 118 5.21854 118 5.21854V5.76781H113.774V4.83415C113.774 4.83415 113.774 4.44928 113.717 4.22976C113.661 3.84537 113.323 3.02146 112.027 3.02146C110.787 3.02146 110.448 3.79025 110.336 4.22976C110.28 4.44928 110.28 4.72439 110.28 4.99903V12.5249C110.28 12.7444 110.28 12.9639 110.336 13.1288C110.336 13.5683 110.787 14.3376 111.97 14.3376Z" fill="black"/>
</svg>
