<svg width="38" height="38" viewBox="0 0 38 38" fill="none" xmlns="http://www.w3.org/2000/svg">
<g id="poly logo" clip-path="url(#clip0_1_1272)">
<path id="Vector" d="M13.5684 25.4947C10.0154 25.4947 7.13374 22.5909 7.13374 19.0094C7.13374 15.4279 10.0154 12.5257 13.5684 12.5257C17.1213 12.5257 20.0014 15.4279 20.0014 19.0094C20.0014 22.5909 17.1198 25.4947 13.5684 25.4947ZM31.015 16.5156L24.213 20.474L24.2447 20.2871L24.2637 20.1225L24.2859 19.8485V19.828L24.2875 19.809L24.3017 19.4749L24.3033 19.1075L24.2985 18.8415L24.2827 18.4615L24.2574 18.1132L24.2194 17.7348L24.194 17.529L24.1402 17.1601L24.0769 16.7991L24.0025 16.446L23.9201 16.0992L23.8615 15.8855L23.7634 15.5514L23.6525 15.2237L23.556 14.9577L23.4293 14.641L23.2915 14.3322L23.1459 14.0314L22.9891 13.7322L22.8229 13.4392L22.8071 13.4155L22.6281 13.1257L22.4381 12.8407L22.2371 12.5621L22.0233 12.285L21.7969 12.0127L21.7716 11.981L21.5309 11.7118L21.2776 11.4458L21.0116 11.1814L20.7281 10.9186L20.706 10.898L20.4067 10.6368L20.0885 10.3739L19.7687 10.1238L19.4108 9.85935L19.0229 9.58702L18.7332 9.39069L18.2898 9.10411L17.7895 8.79219L17.6233 8.69244L17.0089 8.32828L16.8569 8.23803L16.4706 8.0132L2.70043 0V5.02705L9.50239 8.98536L9.32822 9.05028L9.17622 9.11677L8.92923 9.23394L8.91023 9.24344L8.89439 9.25294L8.59989 9.40811L8.28323 9.58861L8.0584 9.72635L7.73857 9.93219L7.45198 10.1285L7.1464 10.3502L6.97857 10.4768L6.69041 10.7064L6.41333 10.9423L6.14733 11.183L5.89083 11.4284L5.73566 11.5868L5.49816 11.8401L5.27175 12.0982L5.09125 12.3198L4.88384 12.5874L4.68592 12.8598L4.50067 13.1384L4.32334 13.4234L4.15392 13.7163L4.13809 13.7432L3.98134 14.0441L3.83251 14.3512L3.69318 14.6663L3.56334 14.9893L3.44143 15.3234L3.42718 15.363L3.31635 15.7066L3.21343 16.0596L3.11843 16.4238L3.03451 16.8038L3.02818 16.8355L2.95376 17.225L2.88726 17.6335L2.83343 18.0388L2.78435 18.4837L2.74318 18.9571L2.72102 19.3102L2.69568 19.839L2.67985 20.4312L2.6751 20.6291L2.66877 21.3448V37.9998L6.98649 35.4854V27.5688L7.13215 27.6907L7.26357 27.7905L7.48998 27.9472L7.50582 27.9567L7.5169 27.9647L7.79873 28.1452L8.1154 28.332L8.3434 28.4587L8.68223 28.636L8.99098 28.788L9.33772 28.9463L9.51822 29.0223L9.86339 29.1601L10.207 29.2867L10.5505 29.3991L10.891 29.5005L11.1 29.5559L11.4388 29.6366L11.7776 29.7063L12.0515 29.7538L12.3888 29.8013L12.7245 29.8361L13.0506 29.8599L13.3879 29.8726H13.7473L14.0877 29.8599L14.4297 29.8361L14.7717 29.8013L15.12 29.7522L15.4699 29.6905L15.5016 29.6841L15.8563 29.6097L16.2141 29.5226L16.5783 29.4197L16.9472 29.3026L16.9678 29.2962L17.3446 29.1648L17.7325 29.0176L18.1014 28.8656L18.5115 28.6835L18.9422 28.4808L19.2493 28.3272L19.7212 28.0834L20.2437 27.7984L20.4051 27.7082L21.029 27.3519L21.1778 27.2664L21.5641 27.0416L35.3343 19.03L31.015 16.5156Z" fill="black"/>
</g>
<defs>
<clipPath id="clip0_1_1272">
<rect width="37.9954" height="37.9954" fill="white"/>
</clipPath>
</defs>
</svg>
