<svg width="19" height="21" viewBox="0 0 19 21" fill="none" xmlns="http://www.w3.org/2000/svg">
<g id="Frame">
<g clip-path="url(#clip0_1_799)">
<path id="Vector" d="M17.0635 1.31188H1.30939C0.587517 1.31188 0.000991595 1.90661 0.000991595 2.63669L0.000991595 18.3621C0.000991595 19.0922 0.587517 19.6869 1.30939 19.6869H17.0635C17.7854 19.6869 18.376 19.0922 18.376 18.3621V2.63669C18.376 1.90661 17.7854 1.31188 17.0635 1.31188ZM5.55452 17.0619H2.83108V8.29276H5.55863V17.0619H5.55452ZM4.1928 7.0951C3.31917 7.0951 2.61369 6.38553 2.61369 5.51599C2.61369 4.64646 3.31917 3.93689 4.1928 3.93689C5.06233 3.93689 5.77191 4.64646 5.77191 5.51599C5.77191 6.38963 5.06644 7.0951 4.1928 7.0951ZM15.7633 17.0619H13.0399V12.7963C13.0399 11.7791 13.0194 10.4707 11.6249 10.4707C10.2057 10.4707 9.98833 11.5781 9.98833 12.7225V17.0619H7.26488V8.29276H9.87758V9.49042H9.9145C10.2795 8.80136 11.1696 8.07538 12.4944 8.07538C15.2506 8.07538 15.7633 9.89237 15.7633 12.2549V17.0619Z" fill="black"/>
</g>
</g>
<defs>
<clipPath id="clip0_1_799">
<path d="M0 0L18.3751 0V21.0001H0L0 0Z" fill="white"/>
</clipPath>
</defs>
</svg>
