<svg width="21" height="21" viewBox="0 0 21 21" fill="none" xmlns="http://www.w3.org/2000/svg">
<g id="Frame">
<g clip-path="url(#clip0_1_803)">
<path id="Vector" d="M20.671 10.4991C20.671 4.87997 16.1183 0.327226 10.4991 0.327226C4.87997 0.327226 0.327226 4.87997 0.327226 10.4991C0.327226 15.5761 4.04694 19.7843 8.90977 20.548V13.4396H6.32578V10.4991H8.90977V8.25803C8.90977 5.7089 10.4274 4.30083 12.7517 4.30083C13.8649 4.30083 15.0289 4.49935 15.0289 4.49935V7.00131H13.7459C12.4827 7.00131 12.0885 7.78553 12.0885 8.58985V10.4991H14.9096L14.4584 13.4396H12.0885V20.548C16.9513 19.7843 20.671 15.5761 20.671 10.4991Z" fill="black"/>
</g>
</g>
<defs>
<clipPath id="clip0_1_803">
<path d="M0 0L21.0001 0V21.0001H0L0 0Z" fill="white"/>
</clipPath>
</defs>
</svg>
