<svg width="18" height="20" viewBox="0 0 18 20" fill="none" xmlns="http://www.w3.org/2000/svg">
<g id="Frame">
<g clip-path="url(#clip0_63_247)">
<path id="Vector" d="M8.75293 5.50586C6.26855 5.50586 4.26465 7.50976 4.26465 9.99414C4.26465 12.4785 6.26855 14.4824 8.75293 14.4824C11.2373 14.4824 13.2412 12.4785 13.2412 9.99414C13.2412 7.50976 11.2373 5.50586 8.75293 5.50586ZM8.75293 12.9121C7.14746 12.9121 5.83496 11.6035 5.83496 9.99414C5.83496 8.38476 7.14355 7.07617 8.75293 7.07617C10.3623 7.07617 11.6709 8.38476 11.6709 9.99414C11.6709 11.6035 10.3584 12.9121 8.75293 12.9121ZM14.4717 5.32226C14.4717 5.9043 14.0029 6.36914 13.4248 6.36914C12.8428 6.36914 12.3779 5.90039 12.3779 5.32226C12.3779 4.74414 12.8467 4.27539 13.4248 4.27539C14.0029 4.27539 14.4717 4.74414 14.4717 5.32226ZM17.4443 6.38476C17.3779 4.98242 17.0576 3.74023 16.0303 2.7168C15.0068 1.69336 13.7646 1.37305 12.3623 1.30273C10.917 1.2207 6.58496 1.2207 5.13965 1.30273C3.74121 1.36914 2.49902 1.68945 1.47168 2.71289C0.444336 3.73633 0.12793 4.97851 0.0576172 6.38086C-0.0244141 7.82617 -0.0244141 12.1582 0.0576172 13.6035C0.124023 15.0059 0.444336 16.248 1.47168 17.2715C2.49902 18.2949 3.7373 18.6152 5.13965 18.6855C6.58496 18.7676 10.917 18.7676 12.3623 18.6855C13.7646 18.6191 15.0068 18.2988 16.0303 17.2715C17.0537 16.248 17.374 15.0059 17.4443 13.6035C17.5264 12.1582 17.5264 7.83008 17.4443 6.38476ZM15.5771 15.1543C15.2725 15.9199 14.6826 16.5098 13.9131 16.8184C12.7607 17.2754 10.0264 17.1699 8.75293 17.1699C7.47949 17.1699 4.74121 17.2715 3.59277 16.8184C2.82715 16.5137 2.2373 15.9238 1.92871 15.1543C1.47168 14.002 1.57715 11.2676 1.57715 9.99414C1.57715 8.7207 1.47559 5.98242 1.92871 4.83398C2.2334 4.06836 2.82324 3.47852 3.59277 3.16992C4.74512 2.71289 7.47949 2.81836 8.75293 2.81836C10.0264 2.81836 12.7646 2.7168 13.9131 3.16992C14.6787 3.47461 15.2686 4.06445 15.5771 4.83398C16.0342 5.98633 15.9287 8.7207 15.9287 9.99414C15.9287 11.2676 16.0342 14.0059 15.5771 15.1543Z" fill="black" fill-opacity="0.69"/>
</g>
</g>
<defs>
<clipPath id="clip0_63_247">
<path d="M0 0L17.5 0V20H0L0 0Z" fill="white"/>
</clipPath>
</defs>
</svg>
