<svg width="119" height="44" viewBox="0 0 119 44" fill="none" xmlns="http://www.w3.org/2000/svg">
<g id="Group 140">
<path id="XMLID_15_" d="M68.5148 12.3507L53.4082 6.41895C50.1625 8.19722 47.5113 10.2565 45.35 12.3158C47.5137 14.3752 50.165 16.432 53.4082 18.2127L68.5148 12.3507Z" fill="black"/>
<path id="XMLID_16_" d="M37.0107 0C37.0107 0 38.6149 5.19803 43.8478 10.8139C46.1856 9.03561 48.9762 7.39413 52.3263 5.99887L37.0107 0Z" fill="black"/>
<path id="XMLID_17_" d="M37.0107 24.6645C37.0107 24.6645 38.6149 19.4664 43.8478 13.8506C46.1856 15.6289 48.9762 17.2703 52.3263 18.6656L37.0107 24.6645Z" fill="black"/>
<path id="XMLID_30_" d="M68.5518 41.9287H64.2615V37.253H67.5072V38.6482H68.5891V34.7758H67.5072V36.1711H64.2615V31.7043H68.3777V33.2736H69.4596V30.1001H68.3777V30.6224H60.8418V31.5302H62.2022V42.0307H60.8418V42.9385H69.6337V40.2524H68.5518V41.9287ZM115.058 30.6597V31.5675H116.453V39.3819L110.069 30.6597H106.858V31.5675H108.184L108.636 32.1942V42.068H107.241V42.9758H111.183V42.068H109.788V33.7636L116.66 43.217H117.637V31.565H119V30.6572H115.058V30.6597ZM99.1828 30.416C95.7979 30.416 93.0422 33.2761 93.0422 36.8351C93.0422 40.3594 95.7979 43.2195 99.1828 43.2195C102.533 43.2195 105.289 40.3594 105.289 36.8003C105.289 33.2761 102.533 30.416 99.1828 30.416ZM99.1828 42.0332C96.8798 42.0332 95.3104 39.8694 95.3104 36.8003C95.3104 33.7313 96.9146 31.6023 99.2177 31.6023C101.451 31.6023 103.02 33.7313 103.02 36.8003C103.02 39.8694 101.451 42.0332 99.1828 42.0332ZM50.8636 39.5212L46.6778 30.6597H43.2232V31.5675H44.6185V42.068H43.2232V42.9758H47.1653V42.068H45.77V33.5199L50.3761 43.3588L54.736 33.7288V42.068H53.3755V42.9758H58.1905V42.068H56.7953V31.5675H58.1905V30.6597H54.9101L50.8636 39.5212ZM80.1342 41.9287H76.0877V31.5675H77.4829V30.6597H72.6679V31.5675H74.0632V42.068H72.6679V42.9758H81.2509V40.2897H80.169V41.9287H80.1342ZM90.7068 41.9287H86.6255V31.5675H87.9859V30.6597H83.1709V31.5675H84.5662V42.068H83.1709V42.9758H91.7539V40.2897H90.672V41.9287H90.7068ZM32.2352 31.5675H33.8046L31.1533 35.9274L28.2932 31.5675H29.7233V30.6597H24.7342V31.5675H25.8509L29.6188 37.3251V42.0705H28.2584V42.9783H33.0734V42.0705H31.6781V37.2207L35.1327 31.57H36.1449V30.6622H32.2377V31.5675H32.2352ZM6.9763 36.487C8.16264 36.1388 9.24453 35.231 9.24453 33.7661C9.24453 31.8833 7.84927 30.6622 5.65068 30.6622H0V31.57H1.36044V42.0705H0V42.9783H6.00136C8.30441 42.9783 9.83894 41.6526 9.83894 39.6978C9.83646 37.7778 8.4412 36.8003 6.9763 36.487ZM3.45209 31.7416H4.9518C5.75514 31.7416 7.11558 32.0201 7.11558 33.8705C7.11558 35.4051 5.99887 36.0691 4.88217 36.0691H3.45209V31.7416ZM5.02144 41.9287H3.45209V37.1137H5.02144C6.66044 37.1137 7.74233 38.0911 7.74233 39.6257C7.74481 41.3368 6.27743 41.9287 5.02144 41.9287ZM19.9191 31.5675H21.3144V39.3819L14.8952 30.6597H11.7217V31.5675H13.0473L13.4651 32.1942V42.1028H12.0699V43.0106H16.0119V42.1028H14.6167V33.8009L21.4885 43.2543H22.4311V31.6023H23.7915V30.6597H19.8495V31.5675H19.9191Z" fill="black"/>
</g>
</svg>
