<svg width="67" height="19" viewBox="0 0 67 19" fill="none" xmlns="http://www.w3.org/2000/svg">
<path id="Vector" d="M11.7605 10.8261H3.91974V18.6262H0V0.358222H3.91974V7.85088H11.7605V0.358222H15.6802V18.6275H11.7605V10.8261ZM25.1494 18.9857C21.2297 18.9857 18.022 17.3965 17.9703 13.0327H21.8901C21.9417 14.9827 23.0609 16.1629 25.1985 16.1629C26.7752 16.1629 28.6103 15.3422 28.6103 13.5577C28.6103 12.1209 27.3891 11.7105 25.3536 11.0827L24.0302 10.7232C21.1793 9.90251 18.3283 8.77314 18.3283 5.48924C18.3283 1.43549 22.0955 0.0494997 25.5074 0.0494997C29.02 0.0494997 32.0752 1.28048 32.1243 5.33553H28.2033C28.0508 3.69423 27.0828 2.73029 25.2502 2.73029C23.7743 2.73029 22.3475 3.51186 22.3475 5.14274C22.3475 6.47662 23.5688 6.88825 26.1148 7.7089L27.6424 8.17133C30.7479 9.14829 32.7343 10.2243 32.7343 13.3036C32.6826 17.4095 28.7124 19 25.1481 19L25.1494 18.9857ZM34.9261 0.410326H41.2393C42.4102 0.358221 43.6328 0.410327 44.8037 0.616141C46.9929 1.12937 48.673 2.56616 48.673 5.02941C48.673 7.38976 47.1971 8.56993 45.0583 9.13527C47.5137 9.5977 49.3231 10.8287 49.3231 13.5485C49.3231 17.7169 45.2495 18.6288 42.0936 18.6288H34.9662L34.9261 0.410326ZM41.2393 8.00459C42.9711 8.00459 44.752 7.64507 44.752 5.52962C44.752 3.6304 43.1236 3.11717 41.4952 3.11717H38.7463V7.99287L41.2393 8.00459ZM41.596 15.9076C43.4286 15.9076 45.2108 15.4973 45.2108 13.2372C45.2108 10.9772 43.6832 10.5668 41.7989 10.5668H38.6934V15.9037L41.596 15.9076ZM59.5172 18.987C53.6628 18.987 51.0652 15.2406 51.0652 9.6472C51.0652 4.05375 53.9678 0 59.7201 0C63.3349 0 66.8475 1.6413 66.9496 5.74716H62.8761C62.6719 3.90004 61.4506 2.97648 59.7188 2.97648C56.1545 2.97648 55.0857 6.82572 55.0857 9.7501C55.0857 12.6745 56.1545 16.0626 59.5663 16.0626C61.3498 16.0626 62.6719 15.0856 62.9265 13.2398H67C66.5929 17.4473 63.2832 18.987 59.5043 18.987H59.5172Z" fill="black"/>
</svg>
