<svg width="19" height="21" viewBox="0 0 19 21" fill="none" xmlns="http://www.w3.org/2000/svg">
<g id="Frame">
<g clip-path="url(#clip0_859_258)">
<path id="Vector" d="M17.0626 1.31163H1.3084C0.586525 1.31163 0 1.90636 0 2.63644L0 18.3619C0 19.092 0.586525 19.6867 1.3084 19.6867H17.0626C17.7844 19.6867 18.3751 19.092 18.3751 18.3619V2.63644C18.3751 1.90636 17.7844 1.31163 17.0626 1.31163ZM5.55353 17.0617H2.83009V8.29251H5.55763V17.0617H5.55353ZM4.19181 7.09485C3.31817 7.09485 2.6127 6.38528 2.6127 5.51575C2.6127 4.64621 3.31817 3.93664 4.19181 3.93664C5.06134 3.93664 5.77092 4.64621 5.77092 5.51575C5.77092 6.38938 5.06544 7.09485 4.19181 7.09485ZM15.7624 17.0617H13.0389V12.796C13.0389 11.7789 13.0184 10.4704 11.6239 10.4704C10.2047 10.4704 9.98733 11.5779 9.98733 12.7222V17.0617H7.26389V8.29251H9.87659V9.49017H9.91351C10.2785 8.80111 11.1686 8.07513 12.4934 8.07513C15.2497 8.07513 15.7624 9.89213 15.7624 12.2546V17.0617Z" fill="black"/>
</g>
</g>
<defs>
<clipPath id="clip0_859_258">
<path d="M0 0L18.3751 0V21.0001H0L0 0Z" fill="white"/>
</clipPath>
</defs>
</svg>
