<svg width="19" height="21" viewBox="0 0 19 21" fill="none" xmlns="http://www.w3.org/2000/svg">
<g id="Frame">
<g clip-path="url(#clip0_859_266)">
<path id="Vector" d="M9.18876 5.78134C6.58015 5.78134 4.47605 7.88545 4.47605 10.4941C4.47605 13.1027 6.58015 15.2068 9.18876 15.2068C11.7974 15.2068 13.9015 13.1027 13.9015 10.4941C13.9015 7.88545 11.7974 5.78134 9.18876 5.78134ZM9.18876 13.5579C7.50301 13.5579 6.12488 12.1839 6.12488 10.4941C6.12488 8.8042 7.49891 7.43018 9.18876 7.43018C10.8786 7.43018 12.2526 8.8042 12.2526 10.4941C12.2526 12.1839 10.8745 13.5579 9.18876 13.5579ZM15.1935 5.58857C15.1935 6.19971 14.7013 6.68779 14.0942 6.68779C13.4831 6.68779 12.995 6.1956 12.995 5.58857C12.995 4.98154 13.4872 4.48935 14.0942 4.48935C14.7013 4.48935 15.1935 4.98154 15.1935 5.58857ZM18.3148 6.7042C18.245 5.23173 17.9087 3.92743 16.83 2.85282C15.7554 1.77821 14.4511 1.44188 12.9786 1.36805C11.461 1.28192 6.91238 1.28192 5.3948 1.36805C3.92644 1.43778 2.62213 1.77411 1.54342 2.84872C0.464706 3.92333 0.132479 5.22763 0.0586502 6.7001C-0.0274828 8.21768 -0.0274828 12.7663 0.0586502 14.2839C0.128377 15.7564 0.464706 17.0607 1.54342 18.1353C2.62213 19.2099 3.92233 19.5462 5.3948 19.6201C6.91238 19.7062 11.461 19.7062 12.9786 19.6201C14.4511 19.5503 15.7554 19.214 16.83 18.1353C17.9046 17.0607 18.2409 15.7564 18.3148 14.2839C18.4009 12.7663 18.4009 8.22178 18.3148 6.7042ZM16.3542 15.9122C16.0343 16.7161 15.4149 17.3355 14.6069 17.6595C13.397 18.1394 10.5259 18.0286 9.18876 18.0286C7.85164 18.0286 4.97644 18.1353 3.77058 17.6595C2.96667 17.3396 2.34733 16.7202 2.0233 15.9122C1.54342 14.7023 1.65416 11.8312 1.65416 10.4941C1.65416 9.15694 1.54752 6.28174 2.0233 5.07587C2.34323 4.27197 2.96257 3.65263 3.77058 3.3286C4.98054 2.84872 7.85164 2.95946 9.18876 2.95946C10.5259 2.95946 13.4011 2.85282 14.6069 3.3286C15.4108 3.64853 16.0302 4.26786 16.3542 5.07587C16.8341 6.28584 16.7233 9.15694 16.7233 10.4941C16.7233 11.8312 16.8341 14.7064 16.3542 15.9122Z" fill="black"/>
</g>
</g>
<defs>
<clipPath id="clip0_859_266">
<path d="M0 0L18.3751 0V21.0001H0L0 0Z" fill="white"/>
</clipPath>
</defs>
</svg>
