<svg width="21" height="21" viewBox="0 0 21 21" fill="none" xmlns="http://www.w3.org/2000/svg">
<g id="Frame">
<g clip-path="url(#clip0_859_262)">
<path id="Vector" d="M20.671 10.4989C20.671 4.87973 16.1183 0.326978 10.4991 0.326978C4.87997 0.326978 0.327226 4.87973 0.327226 10.4989C0.327226 15.5758 4.04694 19.784 8.90977 20.5477V13.4393H6.32578V10.4989H8.90977V8.25778C8.90977 5.70865 10.4274 4.30058 12.7517 4.30058C13.8649 4.30058 15.0289 4.4991 15.0289 4.4991V7.00106H13.7459C12.4827 7.00106 12.0885 7.78528 12.0885 8.5896V10.4989H14.9096L14.4584 13.4393H12.0885V20.5477C16.9513 19.784 20.671 15.5758 20.671 10.4989Z" fill="black"/>
</g>
</g>
<defs>
<clipPath id="clip0_859_262">
<path d="M0 0L21.0001 0V21.0001H0L0 0Z" fill="white"/>
</clipPath>
</defs>
</svg>
