<svg width="18" height="20" viewBox="0 0 18 20" fill="none" xmlns="http://www.w3.org/2000/svg">
<g id="Homepage - Desktop ">
<rect width="1424" height="7027" transform="translate(-982 -6746)" fill="#F7F6F6"/>
<g id="footer">
<path d="M-968 -50.5365C-968 -57.4199 -962.42 -63 -955.537 -63H417.536C424.42 -63 430 -57.4199 430 -50.5365V262.536C430 269.42 424.42 275 417.536 275H-955.536C-962.42 275 -968 269.42 -968 262.536V-50.5365Z" fill="black" fill-opacity="0.2"/>
<g id="Group 117">
<g id="div">
<path d="M140 16H-2V-29H140V16Z" stroke="#E5E7EB"/>
<g id="Frame">
<g clip-path="url(#clip0_0_1)">
<path id="Vector" d="M16.25 1.24951H1.24609C0.558594 1.24951 0 1.81592 0 2.51123L0 17.4878C0 18.1831 0.558594 18.7495 1.24609 18.7495H16.25C16.9375 18.7495 17.5 18.1831 17.5 17.4878V2.51123C17.5 1.81592 16.9375 1.24951 16.25 1.24951ZM5.28906 16.2495H2.69531V7.89795H5.29297V16.2495H5.28906ZM3.99219 6.75732C3.16016 6.75732 2.48828 6.08154 2.48828 5.25342C2.48828 4.42529 3.16016 3.74951 3.99219 3.74951C4.82031 3.74951 5.49609 4.42529 5.49609 5.25342C5.49609 6.08545 4.82422 6.75732 3.99219 6.75732ZM15.0117 16.2495H12.418V12.187C12.418 11.2183 12.3984 9.97217 11.0703 9.97217C9.71875 9.97217 9.51172 11.0269 9.51172 12.1167V16.2495H6.91797V7.89795H9.40625V9.03857H9.44141C9.78906 8.38232 10.6367 7.69092 11.8984 7.69092C14.5234 7.69092 15.0117 9.42139 15.0117 11.6714V16.2495Z" fill="black" fill-opacity="0.69"/>
</g>
</g>
</g>
</g>
</g>
</g>
<defs>
<clipPath id="clip0_0_1">
<path d="M0 0L17.5 0V20H0L0 0Z" fill="white"/>
</clipPath>
</defs>
</svg>
