<svg width="68" height="30" viewBox="0 0 68 30" fill="none" xmlns="http://www.w3.org/2000/svg">
<path id="Vector" d="M41.1457 20.8788H50.4107V24.6472H36.6775V5.2955H41.1457V20.8788ZM60.2424 17.2692H63.8804V20.655C63.2117 20.91 61.9027 21.165 60.6589 21.165C56.6355 21.165 55.2954 19.1222 55.2954 14.9713C55.2954 11.0103 56.5704 8.6785 60.5909 8.6785C62.832 8.6785 64.1042 9.38117 65.1582 10.7242L67.9405 8.16567C66.2405 5.74317 63.2769 5.00934 60.4917 5.00934C54.2357 5.00934 50.949 8.4235 50.949 14.9373C50.949 21.42 53.9155 24.9333 60.4634 24.9333C63.4667 24.9333 66.402 24.1683 68 23.0492V13.6595H60.2395L60.2424 17.2692ZM14.9912 0C18.9671 0 22.7801 1.57942 25.5915 4.39081C28.4029 7.2022 29.9823 11.0153 29.9823 14.9912C29.9823 18.9671 28.4029 22.7801 25.5915 25.5915C22.7801 28.4029 18.9671 29.9823 14.9912 29.9823C11.0153 29.9823 7.2022 28.4029 4.39081 25.5915C1.57942 22.7801 0 18.9671 0 14.9912C0 11.0153 1.57942 7.2022 4.39081 4.39081C7.2022 1.57942 11.0153 0 14.9912 0ZM23.9445 23.9615C25.1242 22.7879 26.0596 21.3921 26.6967 19.8549C27.3337 18.3176 27.6599 16.6694 27.6562 15.0053V14.3197L27.0328 14.3225H18.6887V15.7222H26.231L26.2282 15.7647C26.0298 18.6114 24.761 21.2774 22.6767 23.2265C20.5925 25.1756 17.8476 26.2633 14.994 26.2707C13.5142 26.2744 12.0483 25.9845 10.6812 25.418C9.31405 24.8514 8.07289 24.0193 7.0295 22.9698C5.98083 21.926 5.14943 20.6847 4.58335 19.3177C4.01727 17.9506 3.72775 16.485 3.7315 15.0053C3.7315 11.9992 4.9045 9.1715 7.0295 7.04367C8.07289 5.99521 9.31371 5.16392 10.6803 4.59784C12.0468 4.03177 13.512 3.74213 14.9912 3.74567L15.7052 3.75417V2.35167L14.994 2.34317C11.6367 2.34692 8.41789 3.68208 6.04364 6.0558C3.66938 8.42952 2.3335 11.648 2.329 15.0053C2.329 18.3883 3.6465 21.5673 6.03784 23.9615C7.21102 25.141 8.60631 26.0763 10.1431 26.7133C11.6798 27.3504 13.3276 27.6766 14.9912 27.6732C16.6557 27.6774 18.3045 27.3515 19.8423 26.7144C21.3801 26.0773 22.7763 25.1417 23.9502 23.9615M15.7052 20.2867V8.31584H14.28V21.6892H18.6887V20.2867H15.7052ZM12.121 10.2227C12.1221 9.84349 12.0107 9.47252 11.8008 9.15674C11.5909 8.84095 11.292 8.59458 10.9419 8.44883C10.5919 8.30307 10.2064 8.2645 9.83445 8.33799C9.46246 8.41148 9.12066 8.59374 8.85234 8.86166C8.58402 9.12958 8.40126 9.47111 8.32722 9.84299C8.25317 10.2149 8.29118 10.6004 8.43641 10.9506C8.58164 11.3009 8.82757 11.6002 9.14304 11.8105C9.45851 12.0209 9.82933 12.1329 10.2085 12.1323C10.715 12.1316 11.2006 11.9302 11.559 11.5724C11.9174 11.2145 12.1195 10.7292 12.121 10.2227Z" fill="black"/>
</svg>
