<svg width="32" height="43" viewBox="0 0 32 43" fill="none" xmlns="http://www.w3.org/2000/svg">
<g id="Frame">
<g clip-path="url(#clip0_1511_91)">
<path id="Vector" d="M27.035 24.4039C27.0186 21.3982 28.3781 19.1296 31.1299 17.4589C29.5902 15.2558 27.2643 14.0437 24.1931 13.8062C21.2857 13.5769 18.1081 15.5015 16.9451 15.5015C15.7166 15.5015 12.8993 13.8881 10.6881 13.8881C6.11816 13.9618 1.2616 17.5326 1.2616 24.797C1.2616 26.9427 1.65471 29.1594 2.44093 31.4471C3.48923 34.4528 7.27293 41.8236 11.2204 41.7008C13.2843 41.6516 14.742 40.2348 17.4283 40.2348C20.0327 40.2348 21.384 41.7008 23.6853 41.7008C27.6656 41.6434 31.0889 34.9442 32.0881 31.9303C26.7483 29.416 27.035 24.5595 27.035 24.4039ZM22.3995 10.9562C24.6354 8.30267 24.4306 5.88668 24.3651 5.01855C22.3913 5.13321 20.1064 6.36169 18.8042 7.8768C17.371 9.49839 16.5274 11.5049 16.7076 13.7653C18.8451 13.9291 20.7943 12.8316 22.3995 10.9562Z" fill="#100101"/>
</g>
</g>
<defs>
<clipPath id="clip0_1511_91">
<path d="M0.550903 0.664062H31.9998V42.596H0.550903V0.664062Z" fill="white"/>
</clipPath>
</defs>
</svg>
