<svg width="119" height="19" viewBox="0 0 119 19" fill="none" xmlns="http://www.w3.org/2000/svg">
<path id="Vector" d="M97.611 1.51813L97.8353 14.3497H97.7229L93.9144 1.51813H87.6409V17.6803H91.7856L91.5618 4.41232H91.6742L95.7627 17.6803H101.756V1.51813H97.611ZM18.6895 1.51813L15.553 17.8447H20.0901L22.3866 2.99262H22.4985L24.7392 17.8442H29.2202L26.1394 1.51813H18.6895ZM44.007 1.51813L41.9349 13.9677H41.8225L39.7504 1.51813H32.9168L32.5805 17.8447H36.7815L36.8939 3.15603H36.9496L39.7499 17.8442H44.007L46.8078 3.1565H46.9202L47.0317 17.8442H51.2326L50.8406 1.51813H44.007ZM8.49553 13.203C8.66315 13.5851 8.60744 14.1315 8.55124 14.4045C8.43932 14.9505 8.04738 15.4965 6.92677 15.4965C5.86285 15.4965 5.24659 14.8962 5.24659 14.022V12.4389H0.765625V13.6947C0.765625 17.353 3.73404 18.445 6.87106 18.445C9.89568 18.445 12.4159 17.4073 12.8084 14.7318C13.0322 13.3121 12.8641 12.3841 12.8084 12.0563C12.024 8.61663 5.63903 7.6338 5.19039 5.72244C5.13468 5.39467 5.13468 5.06738 5.19039 4.84871C5.30279 4.30275 5.69474 3.75678 6.70294 3.75678C7.71115 3.75678 8.2717 4.35705 8.2717 5.23127V6.2141H12.4721V5.06738C12.4721 1.51813 9.1675 0.972168 6.81486 0.972168C3.84644 0.972168 1.38189 1.955 0.933741 4.57573C0.821338 5.28558 0.765625 5.94111 0.989453 6.76006C1.66192 10.1454 7.65593 11.1283 8.49553 13.203ZM62.9958 13.203C63.1634 13.5856 63.1072 14.0768 63.0515 14.4045C62.9391 14.9505 62.5472 15.4965 61.427 15.4965C60.3626 15.4965 59.7469 14.8962 59.7469 14.022V12.4389H55.2654V13.6947C55.2654 17.2982 58.1781 18.3906 61.3151 18.3906C64.3397 18.3906 66.8043 17.4078 67.1963 14.6775C67.4206 13.2578 67.2524 12.3841 67.1963 12.002C66.5243 8.61663 60.1945 7.57901 59.7469 5.72292C59.6907 5.39515 59.6907 5.06738 59.7469 4.84871C59.8588 4.30275 60.2507 3.75678 61.2589 3.75678C62.2109 3.75678 62.8277 4.35705 62.8277 5.23127V6.2141H66.9719V5.06738C66.9719 1.51813 63.7235 0.972168 61.3713 0.972168C58.4024 0.972168 55.9936 1.90021 55.5459 4.57573C55.4335 5.28558 55.4335 5.94111 55.6016 6.76006C56.2741 10.1454 62.1552 11.0735 62.9958 13.203ZM77.1107 15.3874C78.287 15.3874 78.6227 14.6227 78.7347 14.1859C78.7909 14.0224 78.7909 13.749 78.7909 13.5856V1.51813H83.0475V13.2578C83.0475 13.5856 83.0475 14.1859 82.9918 14.3497C82.7118 17.4078 80.2472 18.3906 77.1664 18.3906C74.0861 18.3906 71.6215 17.4078 71.341 14.3497C71.341 14.1859 71.2853 13.5856 71.2853 13.2578V1.51813H75.5419V13.5856C75.5419 13.8038 75.5419 14.022 75.5981 14.1859C75.5981 14.6227 75.9344 15.3874 77.1107 15.3874ZM112.062 15.2235C113.295 15.2235 113.687 14.4588 113.799 14.022C113.855 13.8586 113.855 13.5851 113.855 13.4217V11.0735H112.118V8.67094H118.056V13.0396C118.056 13.3669 118.056 13.5851 117.999 14.1315C117.719 17.1343 115.087 18.172 112.118 18.172C109.149 18.172 106.517 17.1343 106.237 14.1315C106.181 13.5851 106.181 13.3669 106.181 13.0391V6.15979C106.181 5.88633 106.237 5.34036 106.237 5.06738C106.629 2.00931 109.15 1.02648 112.118 1.02648C115.087 1.02648 117.664 2.00931 117.999 5.06738C118.056 5.55856 118.056 6.15931 118.056 6.15931V6.70528H113.855V5.77723C113.855 5.77723 113.855 5.39468 113.799 5.17648C113.743 4.7944 113.407 3.97545 112.118 3.97545C110.886 3.97545 110.55 4.73961 110.438 5.17648C110.382 5.39468 110.382 5.66813 110.382 5.94112V13.4217C110.382 13.6399 110.382 13.8581 110.438 14.022C110.438 14.4588 110.886 15.2235 112.062 15.2235Z" fill="black"/>
</svg>
