<svg width="12" height="13" viewBox="0 0 12 13" fill="none" xmlns="http://www.w3.org/2000/svg">
<g id="Frame">
<g clip-path="url(#clip0_562_57)">
<path id="Vector" d="M5.82429 3.84947C4.26915 3.84947 3.01476 5.10386 3.01476 6.659C3.01476 8.21415 4.26915 9.46853 5.82429 9.46853C7.37944 9.46853 8.63382 8.21415 8.63382 6.659C8.63382 5.10386 7.37944 3.84947 5.82429 3.84947ZM5.82429 8.48556C4.81932 8.48556 3.99773 7.66642 3.99773 6.659C3.99773 5.65158 4.81687 4.83244 5.82429 4.83244C6.83171 4.83244 7.65085 5.65158 7.65085 6.659C7.65085 7.66642 6.82927 8.48556 5.82429 8.48556ZM9.40406 3.73455C9.40406 4.09888 9.11063 4.38986 8.74874 4.38986C8.38441 4.38986 8.09343 4.09644 8.09343 3.73455C8.09343 3.37266 8.38686 3.07924 8.74874 3.07924C9.11063 3.07924 9.40406 3.37266 9.40406 3.73455ZM11.2649 4.39964C11.2233 3.52182 11.0228 2.74425 10.3797 2.1036C9.73905 1.46296 8.96148 1.26246 8.08365 1.21844C7.17893 1.16709 4.46721 1.16709 3.56248 1.21844C2.6871 1.26001 1.90953 1.46052 1.26645 2.10116C0.62336 2.7418 0.425299 3.51937 0.381285 4.3972C0.329936 5.30192 0.329936 8.01364 0.381285 8.91836C0.422854 9.79619 0.62336 10.5738 1.26645 11.2144C1.90953 11.855 2.68466 12.0555 3.56248 12.0996C4.46721 12.1509 7.17893 12.1509 8.08365 12.0996C8.96148 12.058 9.73905 11.8575 10.3797 11.2144C11.0203 10.5738 11.2208 9.79619 11.2649 8.91836C11.3162 8.01364 11.3162 5.30436 11.2649 4.39964ZM10.096 9.88911C9.90532 10.3684 9.5361 10.7376 9.05439 10.9308C8.33306 11.2168 6.62142 11.1508 5.82429 11.1508C5.02716 11.1508 3.31307 11.2144 2.59419 10.9308C2.11493 10.74 1.7457 10.3708 1.55253 9.88911C1.26645 9.16777 1.33247 7.45614 1.33247 6.659C1.33247 5.86187 1.26889 4.14779 1.55253 3.4289C1.74326 2.94964 2.11248 2.58042 2.59419 2.38725C3.31552 2.10116 5.02716 2.16718 5.82429 2.16718C6.62142 2.16718 8.33551 2.1036 9.05439 2.38725C9.53365 2.57797 9.90288 2.9472 10.096 3.4289C10.3821 4.15023 10.3161 5.86187 10.3161 6.659C10.3161 7.45614 10.3821 9.17022 10.096 9.88911Z" fill="black"/>
</g>
</g>
<defs>
<clipPath id="clip0_562_57">
<path d="M0.344727 0.403076H11.2992V12.9225H0.344727V0.403076Z" fill="white"/>
</clipPath>
</defs>
</svg>
