<svg width="19" height="21" viewBox="0 0 19 21" fill="none" xmlns="http://www.w3.org/2000/svg">
<g id="Frame">
<g clip-path="url(#clip0_136_290)">
<path id="Vector" d="M9.19272 5.78134C6.58412 5.78134 4.48001 7.88545 4.48001 10.4941C4.48001 13.1027 6.58412 15.2068 9.19272 15.2068C11.8013 15.2068 13.9054 13.1027 13.9054 10.4941C13.9054 7.88545 11.8013 5.78134 9.19272 5.78134ZM9.19272 13.5579C7.50698 13.5579 6.12885 12.1839 6.12885 10.4941C6.12885 8.8042 7.50287 7.43018 9.19272 7.43018C10.8826 7.43018 12.2566 8.8042 12.2566 10.4941C12.2566 12.1839 10.8785 13.5579 9.19272 13.5579ZM15.1974 5.58857C15.1974 6.19971 14.7052 6.68779 14.0982 6.68779C13.4871 6.68779 12.999 6.1956 12.999 5.58857C12.999 4.98154 13.4912 4.48935 14.0982 4.48935C14.7052 4.48935 15.1974 4.98154 15.1974 5.58857ZM18.3187 6.7042C18.249 5.23173 17.9127 3.92743 16.834 2.85282C15.7593 1.77821 14.455 1.44188 12.9826 1.36805C11.465 1.28192 6.91635 1.28192 5.39877 1.36805C3.9304 1.43778 2.6261 1.77411 1.54739 2.84872C0.468673 3.92333 0.136445 5.22763 0.0626166 6.7001C-0.0235165 8.21768 -0.0235165 12.7663 0.0626166 14.2839C0.132343 15.7564 0.468673 17.0607 1.54739 18.1353C2.6261 19.2099 3.9263 19.5462 5.39877 19.6201C6.91635 19.7062 11.465 19.7062 12.9826 19.6201C14.455 19.5503 15.7593 19.214 16.834 18.1353C17.9086 17.0607 18.2449 15.7564 18.3187 14.2839C18.4049 12.7663 18.4049 8.22178 18.3187 6.7042ZM16.3582 15.9122C16.0383 16.7161 15.4189 17.3355 14.6109 17.6595C13.4009 18.1394 10.5298 18.0286 9.19272 18.0286C7.85561 18.0286 4.9804 18.1353 3.77454 17.6595C2.97063 17.3396 2.3513 16.7202 2.02727 15.9122C1.54739 14.7023 1.65813 11.8312 1.65813 10.4941C1.65813 9.15694 1.55149 6.28174 2.02727 5.07587C2.34719 4.27197 2.96653 3.65263 3.77454 3.3286C4.98451 2.84872 7.85561 2.95946 9.19272 2.95946C10.5298 2.95946 13.405 2.85282 14.6109 3.3286C15.4148 3.64853 16.0341 4.26786 16.3582 5.07587C16.8381 6.28584 16.7273 9.15694 16.7273 10.4941C16.7273 11.8312 16.8381 14.7064 16.3582 15.9122Z" fill="black"/>
</g>
</g>
<defs>
<clipPath id="clip0_136_290">
<path d="M0 0L18.3751 0V21.0001H0L0 0Z" fill="white"/>
</clipPath>
</defs>
</svg>
