<svg width="27" height="27" viewBox="0 0 27 27" fill="none" xmlns="http://www.w3.org/2000/svg">
<g id="Frame">
<g clip-path="url(#clip0_136_387)">
<path id="Vector" d="M13.501 2.53124C7.44179 2.53124 2.53224 7.4408 2.53224 13.5V15.6093C2.53224 16.3107 1.96798 16.8749 1.26662 16.8749C0.565254 16.8749 0.000997562 16.3107 0.000997562 15.6093V13.5C0.000997562 6.04334 6.04434 0 13.501 0C20.9576 0 27.0009 6.04334 27.0009 13.5V21.099C27.0009 23.6618 24.9232 25.7396 22.355 25.7396L16.5384 25.7343C16.1008 26.4884 15.2834 26.9999 14.3447 26.9999H12.6572C11.2597 26.9999 10.126 25.8661 10.126 24.4687C10.126 23.0712 11.2597 21.9374 12.6572 21.9374H14.3447C15.2834 21.9374 16.1008 22.449 16.5384 23.203L22.3603 23.2083C23.5257 23.2083 24.4697 22.2644 24.4697 21.099V13.5C24.4697 7.4408 19.5601 2.53124 13.501 2.53124ZM7.59472 10.9687H8.43847C9.37187 10.9687 10.126 11.7228 10.126 12.6562V18.5624C10.126 19.4958 9.37187 20.2499 8.43847 20.2499H7.59472C5.73321 20.2499 4.21973 18.7365 4.21973 16.8749V14.3437C4.21973 12.4822 5.73321 10.9687 7.59472 10.9687ZM19.4072 10.9687C21.2687 10.9687 22.7822 12.4822 22.7822 14.3437V16.8749C22.7822 18.7365 21.2687 20.2499 19.4072 20.2499H18.5634C17.63 20.2499 16.8759 19.4958 16.8759 18.5624V12.6562C16.8759 11.7228 17.63 10.9687 18.5634 10.9687H19.4072Z" fill="black"/>
</g>
</g>
<defs>
<clipPath id="clip0_136_387">
<path d="M0 0H26.9999V26.9999H0V0Z" fill="white"/>
</clipPath>
</defs>
</svg>
