<svg width="14" height="9" viewBox="0 0 14 9" fill="none" xmlns="http://www.w3.org/2000/svg">
<path id="Vector" d="M8.80839 3.06665C8.66184 3.7143 8.10479 3.8899 7.08322 3.8899H4.92183L5.28606 2.28126H7.3549C8.44245 2.28126 8.96351 2.38115 8.80839 3.06665ZM13.0532 2.4182C13.2503 1.54581 13.0206 0.860306 12.395 0.461569C11.8636 0.112774 10.8412 0 9.32946 0H2.03455L0 9.00019H3.76658L4.38706 6.25816H6.60158C7.51602 6.25816 7.80997 6.4821 7.73798 7.15552C7.65828 7.91514 7.37975 8.5644 7.57258 9.00019H11.6965L11.7282 8.86325C11.3254 8.65059 11.4917 7.91514 11.718 6.61904C11.8962 5.59682 11.8894 5.0982 10.9586 4.70027C12.0351 4.33858 12.8132 3.47828 13.0532 2.4182Z" fill="#231F20"/>
</svg>
