<svg width="19" height="8" viewBox="0 0 19 8" fill="none" xmlns="http://www.w3.org/2000/svg">
<path id="Vector" d="M18.8454 4.38677C18.7938 4.40156 18.7422 4.41717 18.6916 4.43525H18.6793C15.0186 5.51645 12.3316 5.84344 9.67265 5.80483C7.31085 5.77032 4.9473 5.47373 2.84335 4.44018H2.84161C2.69738 4.3687 2.55578 4.29476 2.41417 4.21753C-0.0490225 2.86274 1.23327 0.22381 5.50322 0.233669C5.65968 0.233669 5.6658 0.0217006 5.50934 0.015128C2.69039 -0.113039 1.56106 0.595166 0.726299 1.30748C-0.410897 2.27859 -0.124194 3.40498 0.973668 4.44018H0.977164C2.05754 5.45401 3.92111 6.37665 5.98572 6.9723C10.2635 8.20632 15.828 8.21782 18.7213 5.0005C18.8174 4.89369 18.8751 4.79921 18.9144 4.71787C18.9503 4.64229 18.9686 4.57985 18.9896 4.53055C19.0036 4.49687 19.0027 4.46482 18.9914 4.44018C18.9704 4.39252 18.9136 4.36623 18.8454 4.38677Z" fill="#231F20"/>
</svg>
