<svg width="19" height="21" viewBox="0 0 19 21" fill="none" xmlns="http://www.w3.org/2000/svg">
<g id="Frame">
<g clip-path="url(#clip0_1_807)">
<path id="Vector" d="M9.19173 5.78085C6.58313 5.78085 4.47902 7.88496 4.47902 10.4936C4.47902 13.1022 6.58313 15.2063 9.19173 15.2063C11.8003 15.2063 13.9044 13.1022 13.9044 10.4936C13.9044 7.88496 11.8003 5.78085 9.19173 5.78085ZM9.19173 13.5574C7.50598 13.5574 6.12785 12.1834 6.12785 10.4936C6.12785 8.80371 7.50188 7.42968 9.19173 7.42968C10.8816 7.42968 12.2556 8.80371 12.2556 10.4936C12.2556 12.1834 10.8775 13.5574 9.19173 13.5574ZM15.1964 5.58808C15.1964 6.19921 14.7042 6.6873 14.0972 6.6873C13.4861 6.6873 12.998 6.19511 12.998 5.58808C12.998 4.98104 13.4902 4.48885 14.0972 4.48885C14.7042 4.48885 15.1964 4.98104 15.1964 5.58808ZM18.3177 6.7037C18.248 5.23124 17.9117 3.92694 16.833 2.85233C15.7584 1.77771 14.4541 1.44138 12.9816 1.36756C11.464 1.28142 6.91536 1.28142 5.39777 1.36756C3.92941 1.43728 2.62511 1.77361 1.5464 2.84822C0.467681 3.92284 0.135453 5.22714 0.061625 6.6996C-0.0245081 8.21718 -0.0245081 12.7658 0.061625 14.2834C0.131352 15.7559 0.467681 17.0602 1.5464 18.1348C2.62511 19.2094 3.92531 19.5457 5.39777 19.6196C6.91536 19.7057 11.464 19.7057 12.9816 19.6196C14.4541 19.5498 15.7584 19.2135 16.833 18.1348C17.9076 17.0602 18.2439 15.7559 18.3177 14.2834C18.4039 12.7658 18.4039 8.22129 18.3177 6.7037ZM16.3572 15.9117C16.0373 16.7156 15.4179 17.335 14.6099 17.659C13.3999 18.1389 10.5288 18.0282 9.19173 18.0282C7.85462 18.0282 4.97941 18.1348 3.77355 17.659C2.96964 17.3391 2.3503 16.7197 2.02628 15.9117C1.5464 14.7018 1.65714 11.8307 1.65714 10.4936C1.65714 9.15644 1.5505 6.28124 2.02628 5.07538C2.3462 4.27147 2.96554 3.65213 3.77355 3.32811C4.98351 2.84822 7.85462 2.95897 9.19173 2.95897C10.5288 2.95897 13.404 2.85233 14.6099 3.32811C15.4138 3.64803 16.0332 4.26737 16.3572 5.07538C16.8371 6.28534 16.7263 9.15644 16.7263 10.4936C16.7263 11.8307 16.8371 14.7059 16.3572 15.9117Z" fill="black"/>
</g>
</g>
<defs>
<clipPath id="clip0_1_807">
<path d="M0 0L18.3751 0V21.0001H0L0 0Z" fill="white"/>
</clipPath>
</defs>
</svg>
