<svg width="27" height="27" viewBox="0 0 27 27" fill="none" xmlns="http://www.w3.org/2000/svg">
<g id="Frame">
<g clip-path="url(#clip0_1_859)">
<path id="Vector" d="M13.499 2.53149C7.4398 2.53149 2.53024 7.44105 2.53024 13.5002V15.6096C2.53024 16.3109 1.96599 16.8752 1.26462 16.8752C0.563258 16.8752 -0.000997562 16.3109 -0.000997562 15.6096V13.5002C-0.000997562 6.04359 6.04234 0.00024939 13.499 0.00024939C20.9556 0.00024939 26.9989 6.04359 26.9989 13.5002V21.0992C26.9989 23.6621 24.9212 25.7398 22.353 25.7398L16.5364 25.7345C16.0988 26.4886 15.2814 27.0002 14.3427 27.0002H12.6552C11.2578 27.0002 10.124 25.8664 10.124 24.4689C10.124 23.0715 11.2578 21.9377 12.6552 21.9377H14.3427C15.2814 21.9377 16.0988 22.4492 16.5364 23.2033L22.3583 23.2086C23.5237 23.2086 24.4677 22.2646 24.4677 21.0992V13.5002C24.4677 7.44105 19.5581 2.53149 13.499 2.53149ZM7.59273 10.969H8.43648C9.36987 10.969 10.124 11.7231 10.124 12.6565V18.5627C10.124 19.4961 9.36987 20.2502 8.43648 20.2502H7.59273C5.73121 20.2502 4.21774 18.7367 4.21774 16.8752V14.344C4.21774 12.4824 5.73121 10.969 7.59273 10.969ZM19.4052 10.969C21.2667 10.969 22.7802 12.4824 22.7802 14.344V16.8752C22.7802 18.7367 21.2667 20.2502 19.4052 20.2502H18.5614C17.628 20.2502 16.8739 19.4961 16.8739 18.5627V12.6565C16.8739 11.7231 17.628 10.969 18.5614 10.969H19.4052Z" fill="black"/>
</g>
</g>
<defs>
<clipPath id="clip0_1_859">
<path d="M0 0H26.9999V26.9999H0V0Z" fill="white"/>
</clipPath>
</defs>
</svg>
