<svg width="27" height="27" viewBox="0 0 27 27" fill="none" xmlns="http://www.w3.org/2000/svg">
<g id="Frame">
<g clip-path="url(#clip0_1_878)">
<path id="Vector" d="M13.5 2.53149C7.4408 2.53149 2.53124 7.44105 2.53124 13.5002V15.6096C2.53124 16.3109 1.96699 16.8752 1.26562 16.8752C0.564256 16.8752 0 16.3109 0 15.6096V13.5002C0 6.04359 6.04334 0.00024939 13.5 0.00024939C20.9566 0.00024939 26.9999 6.04359 26.9999 13.5002V21.0992C26.9999 23.6621 24.9222 25.7398 22.354 25.7398L16.5374 25.7345C16.0998 26.4886 15.2824 27.0002 14.3437 27.0002H12.6562C11.2588 27.0002 10.125 25.8664 10.125 24.4689C10.125 23.0715 11.2588 21.9377 12.6562 21.9377H14.3437C15.2824 21.9377 16.0998 22.4492 16.5374 23.2033L22.3593 23.2086C23.5247 23.2086 24.4687 22.2646 24.4687 21.0992V13.5002C24.4687 7.44105 19.5591 2.53149 13.5 2.53149ZM7.59373 10.969H8.43747C9.37087 10.969 10.125 11.7231 10.125 12.6565V18.5627C10.125 19.4961 9.37087 20.2502 8.43747 20.2502H7.59373C5.73221 20.2502 4.21874 18.7367 4.21874 16.8752V14.344C4.21874 12.4824 5.73221 10.969 7.59373 10.969ZM19.4062 10.969C21.2677 10.969 22.7812 12.4824 22.7812 14.344V16.8752C22.7812 18.7367 21.2677 20.2502 19.4062 20.2502H18.5624C17.629 20.2502 16.8749 19.4961 16.8749 18.5627V12.6565C16.8749 11.7231 17.629 10.969 18.5624 10.969H19.4062Z" fill="black"/>
</g>
</g>
<defs>
<clipPath id="clip0_1_878">
<path d="M0 0H26.9999V26.9999H0V0Z" fill="white"/>
</clipPath>
</defs>
</svg>
