<svg width="20" height="20" viewBox="0 0 20 20" fill="none" xmlns="http://www.w3.org/2000/svg">
<g id="Frame">
<g clip-path="url(#clip0_30_110)">
<path id="Vector" d="M19.6875 9.99951C19.6875 4.64795 15.3516 0.312012 10 0.312012C4.64844 0.312012 0.3125 4.64795 0.3125 9.99951C0.3125 14.8347 3.85508 18.8425 8.48633 19.5698V12.7999H6.02539V9.99951H8.48633V7.86514C8.48633 5.4374 9.93164 4.09639 12.1453 4.09639C13.2055 4.09639 14.3141 4.28545 14.3141 4.28545V6.66826H13.0922C11.8891 6.66826 11.5137 7.41514 11.5137 8.18115V9.99951H14.2004L13.7707 12.7999H11.5137V19.5698C16.1449 18.8425 19.6875 14.8347 19.6875 9.99951Z" fill="black" fill-opacity="0.69"/>
</g>
</g>
<defs>
<clipPath id="clip0_30_110">
<path d="M0 0L20 0V20H0L0 0Z" fill="white"/>
</clipPath>
</defs>
</svg>
