<svg width="18" height="20" viewBox="0 0 18 20" fill="none" xmlns="http://www.w3.org/2000/svg">
<g id="Frame">
<g clip-path="url(#clip0_63_243)">
<path id="Vector" d="M16.25 1.24927H1.24609C0.558594 1.24927 0 1.81567 0 2.51099L0 17.4875C0 18.1829 0.558594 18.7493 1.24609 18.7493H16.25C16.9375 18.7493 17.5 18.1829 17.5 17.4875V2.51099C17.5 1.81567 16.9375 1.24927 16.25 1.24927ZM5.28906 16.2493H2.69531V7.89771H5.29297V16.2493H5.28906ZM3.99219 6.75708C3.16016 6.75708 2.48828 6.0813 2.48828 5.25317C2.48828 4.42505 3.16016 3.74927 3.99219 3.74927C4.82031 3.74927 5.49609 4.42505 5.49609 5.25317C5.49609 6.08521 4.82422 6.75708 3.99219 6.75708ZM15.0117 16.2493H12.418V12.1868C12.418 11.218 12.3984 9.97192 11.0703 9.97192C9.71875 9.97192 9.51172 11.0266 9.51172 12.1165V16.2493H6.91797V7.89771H9.40625V9.03833H9.44141C9.78906 8.38208 10.6367 7.69067 11.8984 7.69067C14.5234 7.69067 15.0117 9.42114 15.0117 11.6711V16.2493Z" fill="black" fill-opacity="0.69"/>
</g>
</g>
<defs>
<clipPath id="clip0_63_243">
<path d="M0 0L17.5 0V20H0L0 0Z" fill="white"/>
</clipPath>
</defs>
</svg>
