<svg xmlns="http://www.w3.org/2000/svg" xmlns:xlink="http://www.w3.org/1999/xlink" width="100" zoomAndPan="magnify" viewBox="0 0 75 37.5" height="50" preserveAspectRatio="xMidYMid meet" version="1.2"><defs><clipPath id="064bf1c19b"><path d="M 20.035156 0.269531 L 50 0.269531 L 50 37.007812 L 20.035156 37.007812 Z M 20.035156 0.269531 "/></clipPath></defs><g id="37c5280cd3"><g clip-rule="nonzero" clip-path="url(#064bf1c19b)"><path style=" stroke:none;fill-rule:nonzero;fill:#000000;fill-opacity:1;" d="M 40.347656 6.167969 C 41.632812 4.601562 42.496094 2.429688 42.253906 0.265625 C 40.414062 0.332031 38.175781 1.503906 36.859375 3.0625 C 35.671875 4.449219 34.632812 6.664062 34.910156 8.78125 C 36.96875 8.945312 39.074219 7.726562 40.347656 6.167969 M 49.882812 27.378906 C 49.839844 27.507812 49.117188 30.035156 47.351562 32.636719 C 45.816406 34.890625 44.234375 37.136719 41.734375 37.183594 C 39.28125 37.226562 38.492188 35.714844 35.6875 35.714844 C 32.875 35.714844 31.996094 37.136719 29.675781 37.226562 C 27.265625 37.316406 25.433594 34.789062 23.886719 32.550781 C 20.738281 27.960938 18.339844 19.574219 21.566406 13.921875 C 23.167969 11.113281 26.042969 9.332031 29.152344 9.289062 C 31.523438 9.25 33.753906 10.894531 35.203125 10.894531 C 36.652344 10.894531 39.363281 8.910156 42.222656 9.203125 C 43.414062 9.253906 46.769531 9.6875 48.925781 12.867188 C 48.753906 12.976562 44.921875 15.226562 44.960938 19.902344 C 45.011719 25.496094 49.828125 27.359375 49.882812 27.378906 "/></g></g></svg>