<svg width="18" height="20" viewBox="0 0 18 20" fill="none" xmlns="http://www.w3.org/2000/svg">
<g id="Frame">
<g clip-path="url(#clip0_1_268)">
<path id="Vector" d="M8.75378 5.50586C6.26941 5.50586 4.2655 7.50976 4.2655 9.99414C4.2655 12.4785 6.26941 14.4824 8.75378 14.4824C11.2382 14.4824 13.2421 12.4785 13.2421 9.99414C13.2421 7.50976 11.2382 5.50586 8.75378 5.50586ZM8.75378 12.9121C7.14831 12.9121 5.83581 11.6035 5.83581 9.99414C5.83581 8.38476 7.14441 7.07617 8.75378 7.07617C10.3632 7.07617 11.6718 8.38476 11.6718 9.99414C11.6718 11.6035 10.3593 12.9121 8.75378 12.9121ZM14.4725 5.32226C14.4725 5.9043 14.0038 6.36914 13.4257 6.36914C12.8436 6.36914 12.3788 5.90039 12.3788 5.32226C12.3788 4.74414 12.8475 4.27539 13.4257 4.27539C14.0038 4.27539 14.4725 4.74414 14.4725 5.32226ZM17.4452 6.38476C17.3788 4.98242 17.0585 3.74023 16.0311 2.7168C15.0077 1.69336 13.7655 1.37305 12.3632 1.30273C10.9178 1.2207 6.58581 1.2207 5.1405 1.30273C3.74206 1.36914 2.49988 1.68945 1.47253 2.71289C0.44519 3.73633 0.128784 4.97851 0.0584717 6.38086C-0.0235596 7.82617 -0.0235596 12.1582 0.0584717 13.6035C0.124878 15.0059 0.44519 16.248 1.47253 17.2715C2.49988 18.2949 3.73816 18.6152 5.1405 18.6855C6.58581 18.7676 10.9178 18.7676 12.3632 18.6855C13.7655 18.6191 15.0077 18.2988 16.0311 17.2715C17.0546 16.248 17.3749 15.0059 17.4452 13.6035C17.5272 12.1582 17.5272 7.83008 17.4452 6.38476ZM15.578 15.1543C15.2733 15.9199 14.6835 16.5098 13.9139 16.8184C12.7616 17.2754 10.0272 17.1699 8.75378 17.1699C7.48035 17.1699 4.74206 17.2715 3.59363 16.8184C2.828 16.5137 2.23816 15.9238 1.92957 15.1543C1.47253 14.002 1.578 11.2676 1.578 9.99414C1.578 8.7207 1.47644 5.98242 1.92957 4.83398C2.23425 4.06836 2.8241 3.47852 3.59363 3.16992C4.74597 2.71289 7.48035 2.81836 8.75378 2.81836C10.0272 2.81836 12.7655 2.7168 13.9139 3.16992C14.6796 3.47461 15.2694 4.06445 15.578 4.83398C16.035 5.98633 15.9296 8.7207 15.9296 9.99414C15.9296 11.2676 16.035 14.0059 15.578 15.1543Z" fill="black" fill-opacity="0.69"/>
</g>
</g>
<defs>
<clipPath id="clip0_1_268">
<path d="M0 0L17.5 0V20H0L0 0Z" fill="white"/>
</clipPath>
</defs>
</svg>
