<svg width="81" height="42" viewBox="0 0 81 42" fill="none" xmlns="http://www.w3.org/2000/svg">
<path id="Vector" fill-rule="evenodd" clip-rule="evenodd" d="M73.7017 34.2697C73.7017 38.1675 70.5936 41.3265 66.2656 41.3265C61.9375 41.3265 58.8332 38.1675 58.8332 34.2697C58.8332 30.3786 61.9337 27.2178 66.2618 27.2178C70.5898 27.2178 73.6967 30.3786 73.6967 34.2703L73.7017 34.2697ZM39.927 30.5575C39.8732 30.5404 38.378 30.141 37.1492 30.141C35.7268 30.141 34.9536 30.6022 34.9536 31.2577C34.9536 32.0871 35.9963 32.3756 36.5816 32.5545L37.5605 32.8565C39.8663 33.5659 40.916 35.0948 40.916 36.7543C40.916 40.1767 37.8073 41.3265 35.0896 41.3265C33.1995 41.3265 31.431 40.9896 31.2563 40.9541V37.8189C31.5696 37.8955 33.0584 38.3261 34.61 38.3261C36.3766 38.3261 37.1897 37.8238 37.1897 37.0538C37.1897 36.3629 36.4874 35.9635 35.6066 35.6964C35.3914 35.6229 35.0674 35.5249 34.8472 35.4575C32.8692 34.851 31.2215 33.7239 31.2215 31.4696C31.2215 28.9213 33.1907 27.2074 36.4646 27.2074C38.1933 27.2074 39.8207 27.6135 39.9258 27.6423V30.552L39.927 30.5575ZM26.4575 41.0833H22.9058V27.4597H26.4581L26.4575 41.0833ZM78.9593 39.2897V39.5041H78.3329V41.0833H78.0735V39.5029H77.4439V39.2897H78.9625H78.9593ZM79.0922 39.2897H79.4953L80.0489 40.7599H80.0584L80.595 39.2897H80.9936V41.0833H80.7279V39.6113H80.7216L80.1584 41.0833H79.9116L79.3675 39.6119H79.3548V41.0882H79.0947V39.2934L79.0922 39.2897ZM55.093 31.363C54.9474 31.2908 53.8021 30.6341 52.1038 30.6341C49.8088 30.6341 48.2162 32.1827 48.2162 34.2697C48.2162 36.2949 49.7398 37.9065 52.1038 37.9065C53.7743 37.9065 54.9367 37.2646 55.0923 37.1837V40.8408C54.645 40.9633 53.4332 41.3265 51.8558 41.3265C47.8618 41.3265 44.3563 38.66 44.3563 34.2697C44.3563 30.201 47.529 27.2178 51.8577 27.2178C53.5231 27.2178 54.7576 27.6098 55.0936 27.7066V31.3637L55.093 31.363ZM18.0235 31.363C17.8805 31.2908 16.739 30.6341 15.04 30.6341C12.7368 30.6341 11.1486 32.1827 11.1486 34.2697C11.1486 36.2949 12.6735 37.9065 15.04 37.9065C16.7105 37.9065 17.8685 37.2646 18.0203 37.1837V40.8408C17.5774 40.9633 16.3688 41.3265 14.7806 41.3265C10.7879 41.3265 7.28621 38.66 7.28621 34.2697C7.28621 30.201 10.4582 27.2178 14.78 27.2178C16.4504 27.2178 17.6843 27.6098 18.0197 27.7066V31.3637L18.0235 31.363ZM66.2649 30.6862C64.1579 30.6862 62.593 32.2911 62.593 34.2697C62.593 36.2532 64.1623 37.8569 66.2694 37.8569C68.3752 37.8569 69.9438 36.2532 69.9438 34.2703C69.9438 32.2917 68.3746 30.6868 66.2706 30.6868L66.2649 30.6862ZM61.6332 1.7005C61.6332 0.762039 60.846 0 59.8754 0C58.9034 0 58.1182 0.762039 58.1182 1.7005V19.7928C58.1182 20.7362 58.9028 21.4994 59.8709 21.4994C60.839 21.4994 61.6275 20.7368 61.6275 19.7928V1.7005H61.6332ZM22.8944 1.7005C22.8944 0.762039 22.1022 0 21.131 0C20.1603 0 19.3681 0.762039 19.3681 1.7005V19.7928C19.3681 20.7362 20.159 21.4994 21.1272 21.4994C22.0972 21.4994 22.8894 20.7368 22.8894 19.7928V1.7005H22.8944ZM80.993 12.8187C80.993 11.8784 80.204 11.1169 79.2358 11.1169C78.2639 11.1169 77.4755 11.8784 77.4755 12.8181V16.3955C77.4755 17.345 78.2665 18.1046 79.2409 18.1046C80.209 18.1046 81 17.345 81 16.4004V12.823L80.993 12.8187ZM42.2543 12.8187C42.2543 11.8784 41.4672 11.1169 40.5016 11.1169C39.5309 11.1169 38.7387 11.8784 38.7387 12.8181V16.3955C38.7387 17.345 39.5309 18.1046 40.5016 18.1046C41.4672 18.1046 42.2543 17.345 42.2543 16.4004V12.823V12.8187ZM3.52573 12.8187C3.52573 11.8784 2.73478 11.1169 1.76286 11.1169C0.792846 11.1169 0 11.8784 0 12.8174L0 16.3949C0 17.3401 0.792846 18.1015 1.76286 18.1015C2.73478 18.1015 3.52573 17.3401 3.52573 16.3949V12.8174V12.8187ZM13.2107 8.12392C13.2107 7.18485 12.4198 6.42097 11.4479 6.42097C10.4766 6.42097 9.68436 7.18485 9.68436 8.12392V16.3936C9.68436 17.3388 10.4766 18.1003 11.4479 18.1003C12.4191 18.1003 13.2107 17.3388 13.2107 16.3936V8.12392ZM32.5794 8.12392C32.5794 7.18485 31.7885 6.42097 30.8166 6.42097C29.8459 6.42097 29.0537 7.18485 29.0537 8.12392V16.3936C29.0537 17.3388 29.8459 18.1003 30.8166 18.1003C31.7885 18.1003 32.5801 17.3388 32.5801 16.3936L32.5794 8.12392ZM51.9431 8.12392C51.9431 7.18485 51.1559 6.42097 50.1853 6.42097C49.2172 6.42097 48.4281 7.18485 48.4281 8.12392V16.3936C48.4281 17.3388 49.2165 18.1003 50.1853 18.1003C51.1559 18.1003 51.9431 17.3388 51.9431 16.3936V8.12392ZM71.3245 8.12392C71.3245 7.18485 70.5373 6.42097 69.5439 6.42097C68.5726 6.42097 67.7861 7.18485 67.7861 8.12392V16.3936C67.7861 17.3388 68.5726 18.1003 69.5439 18.1003C70.5373 18.1003 71.3238 17.3388 71.3238 16.3936L71.3245 8.12392Z" fill="black"/>
</svg>
