<svg width="124" height="16" viewBox="0 0 124 16" fill="none" xmlns="http://www.w3.org/2000/svg">
<path id="Vector" d="M66.6958 3.25519H68.6059V12.6801H66.1784L63.353 8.32723C62.8755 7.57021 62.4377 6.77534 62.4377 6.77534H62.398V12.6801H60.4878V3.25519H62.7561L66.0989 8.40293C66.3376 8.74359 66.4968 9.08425 66.656 9.46276L66.6958 3.25519ZM77.7189 7.116H74.3761V3.21734H71.9487V12.6423H74.3761V8.63004H77.7189V12.6423H80.1464V3.21734H77.7189V7.116ZM42.1027 8.55434H45.2465V7.15385H42.1027V4.69353H46.3209V3.25519H39.6752V12.6801H46.4005V11.0904H42.1027V8.55434ZM33.3479 5.37485C33.1887 5.18559 33.2285 4.92064 33.3877 4.76923C33.4673 4.69353 33.5867 4.65568 33.706 4.65568H37.3274V3.25519H33.0295C31.8755 3.21734 30.9204 4.05006 30.8408 5.14774C30.8408 5.71551 30.8806 6.09402 31.7561 6.96459L34.9795 10.1819C35.2182 10.3712 35.258 10.674 35.0988 10.9011C34.9795 11.0525 34.8203 11.1282 34.6213 11.0904H30.6419V12.6801H35.1784C36.4917 12.718 37.5661 11.7717 37.6059 10.5226V10.4469C37.6059 9.84127 37.4467 9.38706 36.5712 8.55434L33.3479 5.37485ZM55.2349 9.42491C55.0757 9.0464 54.8768 8.70574 54.638 8.36508L51.2953 3.21734H49.027V12.6423H50.9371V6.77534H50.9769C50.9769 6.77534 51.3748 7.60806 51.8922 8.32723L54.7176 12.6801H57.1451V3.25519H55.2349V9.42491ZM108.997 8.55434H112.141V7.15385H108.997V4.69353H113.216V3.25519H106.53V12.6801H113.255V11.0904H108.958L108.997 8.55434ZM124 12.6801H121.374L119.463 8.81929H118.389V12.6801H115.962V3.25519H120.419C122.567 3.25519 123.562 4.50427 123.562 5.98047C123.562 7.116 122.806 8.13797 121.652 8.51649L124 12.6801ZM121.453 6.01832C121.453 5.60195 121.175 4.69353 119.901 4.69353H118.389V7.38095H119.861C121.214 7.38095 121.453 6.43468 121.453 6.01832ZM100.203 5.37485C100.044 5.18559 100.083 4.92064 100.243 4.76923C100.322 4.69353 100.442 4.65568 100.561 4.65568H104.182V3.25519H99.8845C98.7304 3.21734 97.7754 4.05006 97.6958 5.14774C97.6958 5.71551 97.7356 6.09402 98.6111 6.96459L101.834 10.1819C102.073 10.3712 102.113 10.674 101.954 10.9011C101.834 11.0525 101.675 11.1282 101.476 11.0904H97.4968V12.6801H102.033C103.347 12.718 104.421 11.7717 104.461 10.5226V10.4469C104.461 9.84127 104.302 9.38706 103.426 8.55434L100.203 5.37485ZM85.9166 8.55434H89.0603V7.15385H85.9166V4.69353H90.1348V3.25519H83.4493V12.6801H90.1746V11.0904H85.8768L85.9166 8.55434ZM92.8806 12.6801H95.3081V3.25519H92.8806V12.6801ZM0 0V15.8974H22.285V0H0ZM12.2567 1.47619C10.9435 1.96825 9.67009 3.02808 8.63543 5.18559C8.35687 5.79121 7.75995 7.00244 7.52118 7.53236C5.45186 11.8474 4.4172 12.7558 1.27343 12.7558V1.21123H12.2169C12.2965 1.21123 12.3761 1.28694 12.3761 1.36264C12.3761 1.40049 12.3363 1.43834 12.2567 1.47619ZM21.0116 3.14164V14.6862H10.068C9.98845 14.6862 9.90886 14.6105 9.90886 14.5348C9.90886 14.4591 9.94865 14.4212 9.98845 14.3834C11.3017 13.8913 12.5751 12.8315 13.6098 10.674C13.8883 10.0684 14.4852 8.85715 14.724 8.32723C16.8331 4.05006 17.8678 3.14164 21.0116 3.14164Z" fill="black"/>
</svg>
