<svg width="35" height="10" viewBox="0 0 35 10" fill="none" xmlns="http://www.w3.org/2000/svg">
<path id="Vector" d="M35 0.242651H24.0879L23.7902 1.5599C23.1975 0.477875 21.4378 0 18.4804 0C14.6484 0 12.634 0.855883 12.1572 2.96381C11.8078 4.50886 12.7921 5.4415 15.083 5.70891L17.8482 6.04152C18.735 6.14304 19.1319 6.37414 19.0424 6.76948C18.9414 7.21599 18.375 7.43388 17.3564 7.43388C16.3106 7.43388 15.7785 7.14006 15.8206 6.65476H11.2142C11.1825 6.80497 11.1676 6.94858 11.1606 7.08889H4.34218L4.61615 5.87563H9.95672L10.4704 3.6018H5.13071L5.37921 2.5041H11.9693L12.4804 0.242651H2.08548L0 9.46423H10.7207L11.1738 7.46194C11.3503 8.91702 13.0476 9.74485 16.2219 9.74485C20.7327 9.74485 23.1132 8.77424 23.6357 6.46327C23.9799 4.94382 23.1053 4.06152 21.0111 3.7677L17.6506 3.30798C16.7014 3.18088 16.2518 3.06533 16.344 2.65678C16.4248 2.29941 16.9578 2.04355 17.8552 2.04355C19.0371 2.04355 19.6061 2.34976 19.571 2.92502H23.9878C24.0054 2.80535 24.0142 2.69145 24.0177 2.58003H27.1068L25.5491 9.46423H29.3547L30.9107 2.58003H34.4714L35 0.242651Z" fill="#231F20"/>
</svg>
