<svg width="12" height="10" viewBox="0 0 12 10" fill="none" xmlns="http://www.w3.org/2000/svg">
<g id="Group">
<path id="Vector" d="M10.841 9.22448C6.96106 8.19689 5.00001 7.21218 3.73126 6.06171C3.53296 5.88192 3.35046 5.69966 3.18814 5.5141V5.51245C2.3774 4.57805 2.07907 3.54221 2.93281 2.29359C4.18928 0.456134 9.7574 -0.195388 11.8 1.54805C11.915 1.64619 12.0694 1.50269 11.9659 1.39383C10.7542 0.108106 8.90542 -0.00323053 7.26552 6.832e-05C2.57745 0.0107895 -0.346122 2.90636 0.0329245 5.5141C0.368977 7.82659 3.30396 9.91229 9.9092 9.55519C10.354 9.53045 10.6366 9.47024 10.8287 9.43808C10.9647 9.41581 10.9735 9.25994 10.841 9.22448Z" fill="#231F20"/>
</g>
</svg>
