<svg width="110" height="29" viewBox="0 0 110 29" fill="none" xmlns="http://www.w3.org/2000/svg">
<g id="logitech logo" clip-path="url(#clip0_1_100)">
<path id="Vector" d="M54.9833 1.92392H50.9872V6.087H48.8336V9.08963H50.9872V19.6061H54.985V9.08963H57.185V6.087H54.985V1.92392H54.9833ZM45.0867 0.000491796C43.6189 0.000491796 42.4639 0.975261 42.4639 2.24014C42.4639 3.47746 43.6189 4.45368 45.0867 4.45368C46.6164 4.45368 47.7731 3.47746 47.7731 2.24014C47.7731 0.975261 46.6164 0.000491796 45.0867 0.000491796ZM108.625 5.77078C107.938 5.77078 107.409 5.32111 107.409 4.74089C107.409 4.18968 107.941 3.74001 108.625 3.74001C109.282 3.74001 109.811 4.18968 109.811 4.74089C109.811 5.32111 109.282 5.77078 108.625 5.77078ZM108.625 3.5848C107.847 3.5848 107.221 4.11135 107.221 4.74234C107.221 5.40234 107.847 5.92889 108.625 5.92889C109.375 5.92889 110 5.40669 110 4.75394C110 4.12585 109.375 3.5935 108.625 3.5935V3.5848ZM61.8239 11.4366C62.3533 9.64519 63.9775 8.64287 66.0692 8.64287C68.1609 8.64287 69.7216 9.61763 70.2217 11.4366H61.8239ZM66.162 5.66344C61.3547 5.66344 57.7006 8.77486 57.7006 12.9118C57.7006 16.9966 61.0522 20.0007 66.2256 20.0007C69.1131 20.0007 71.6741 19.1042 73.5475 17.4187L70.8628 15.179C69.5514 16.2321 68.1472 16.9966 66.3356 16.9966C64.1528 16.9966 62.4942 15.9522 61.9356 14.1825H74.3897V13.3702C74.3897 8.75746 71.0209 5.67939 66.1809 5.67939L66.162 5.66344ZM101.537 5.66344C99.5711 5.66344 97.885 6.29733 96.6991 7.37799V0.368931H92.7116V19.6032H96.7163V12.2518C96.7163 10.3052 98.1875 8.95908 100.618 8.95908C102.904 8.95908 104.15 10.1456 104.15 12.2518V19.6061H108.149V11.6484C108.149 7.90599 105.365 5.66634 101.56 5.66634L101.537 5.66344ZM108.313 4.71768V4.29412H108.625C108.876 4.29412 108.969 4.3739 108.969 4.5059C108.969 4.63645 108.876 4.71768 108.625 4.71768H108.313ZM109.155 4.5059C109.155 4.2448 108.938 4.13746 108.625 4.13746H108.127V5.34867H108.313V4.88449H108.625L108.969 5.36317H109.187L108.815 4.86563C109.033 4.83662 109.158 4.73508 109.158 4.52185L109.155 4.5059ZM84.3017 8.93297C85.9861 8.93297 87.3611 9.67275 88.4267 10.6997L91.2025 8.37886C89.6419 6.71944 87.1755 5.66634 84.3653 5.66634C79.527 5.66634 75.7166 8.77486 75.7166 12.8321C75.7166 16.8907 79.527 20.0007 84.3653 20.0007C87.1755 20.0007 89.6419 18.9461 91.2025 17.2881L88.425 14.9673C87.3938 15.9681 85.9878 16.7326 84.2725 16.7326C81.7116 16.7326 79.7522 15.0354 79.7522 12.8306C79.7522 10.6113 81.7288 8.92862 84.3069 8.92862L84.3017 8.93297ZM43.1205 19.6047H47.1166V6.08555H43.1205V19.6047ZM14.2077 16.734C11.6467 16.734 9.61862 15.0224 9.61862 12.8059C9.61862 10.6185 11.6467 8.93297 14.2077 8.93297C16.7978 8.93297 18.8277 10.6185 18.8277 12.8321C18.8277 15.047 16.7996 16.734 14.2077 16.734ZM14.2077 5.66634C9.36596 5.66634 5.55721 8.77486 5.55721 12.8321C5.55721 16.8907 9.36596 20.0007 14.2077 20.0007C19.046 20.0007 22.853 16.8907 22.853 12.8321C22.853 8.77486 19.046 5.66634 14.2077 5.66634ZM0.000491796 19.6061H3.9983V0.367481H0.000491796L0.000491796 19.6061ZM32.8802 16.734C30.3192 16.734 28.2911 15.0224 28.2911 12.8059C28.2911 10.6185 30.3192 8.93297 32.8802 8.93297C35.4703 8.93297 37.5002 10.6185 37.5002 12.8321C37.5002 15.047 35.472 16.734 32.8767 16.734H32.8802ZM41.3708 8.77486V6.087H35.7505C34.8464 5.8259 33.877 5.66634 32.8802 5.66634C28.0385 5.66634 24.2297 8.77486 24.2297 12.8321C24.2297 16.8907 28.0385 20.0007 32.8785 20.0007C37.7081 20.0007 41.5238 16.8907 41.5238 12.8321C41.5238 11.4627 41.0769 10.1195 40.2003 9.11864L41.3519 8.77486H41.3708ZM32.8802 24.4002C30.3192 24.4002 28.2911 22.7146 28.2911 20.5272H24.2297C24.2297 24.5859 28.0385 27.6929 32.8785 27.6929C37.7081 27.6929 41.5238 24.5859 41.5238 20.5272H37.4692C37.4692 22.7146 35.4377 24.4002 32.8802 24.4002Z" fill="black"/>
</g>
<defs>
<clipPath id="clip0_1_100">
<rect width="109.214" height="28.0835" fill="white" transform="scale(1.0072)"/>
</clipPath>
</defs>
</svg>
