<svg width="19" height="8" viewBox="0 0 19 8" fill="none" xmlns="http://www.w3.org/2000/svg">
<path id="Vector" d="M0.154537 3.35359C3.90103 2.23374 6.62829 1.89523 9.32671 1.93467C11.852 1.97164 14.3783 2.30768 16.5863 3.52284C19.0496 4.87686 17.7672 7.51669 13.4971 7.50601C13.3407 7.50601 13.3346 7.71799 13.491 7.72538C16.3101 7.85273 17.4394 7.1445 18.2734 6.43217C20.5295 4.50631 17.1842 1.97 13.0138 0.767163C8.73667 -0.466896 3.17113 -0.478399 0.278662 2.73985C0.182509 2.84584 0.125691 2.94032 0.085481 3.02248C0.049642 3.09725 0.0312854 3.15969 0.0103064 3.20899C-0.029029 3.30512 0.0496419 3.38481 0.154537 3.35359Z" fill="#231F20"/>
</svg>
