<svg width="18" height="8" viewBox="0 0 18 8" fill="none" xmlns="http://www.w3.org/2000/svg">
<path id="Vector" d="M4.90756 2.99309C6.19135 1.98004 8.0008 1.09954 11.206 0.778991C15.3309 0.367663 18.6463 2.44037 16.8506 3.94107C16.7378 4.03507 16.8711 4.19012 16.9933 4.10737C18.672 2.95132 17.9233 2.0676 17.1027 1.38152C14.9805 -0.39233 9.15552 -0.326453 4.93149 0.834424C1.05106 1.8997 -1.75756 4.01338 1.29294 6.58337C1.52628 6.7802 1.79381 6.97944 2.09724 7.18028C2.23057 7.26865 2.3528 7.3514 2.46819 7.40442C2.57844 7.45503 2.67075 7.50404 2.74939 7.52332C2.85025 7.54742 2.92204 7.4936 2.91777 7.40523C2.90153 7.1144 2.90238 6.83965 2.91948 6.58337H2.9135L2.91948 6.57936C3.02461 4.98787 3.73061 3.92099 4.90756 2.99309Z" fill="#231F20"/>
</svg>
