<svg width="20" height="20" viewBox="0 0 20 20" fill="none" xmlns="http://www.w3.org/2000/svg">
<g id="Frame">
<g clip-path="url(#clip0_1_1258)">
<path id="Vector" d="M19.6876 9.99951C19.6876 4.64795 15.3517 0.312012 10.0001 0.312012C4.64856 0.312012 0.312622 4.64795 0.312622 9.99951C0.312622 14.8347 3.8552 18.8425 8.48645 19.5698V12.7999H6.02551V9.99951H8.48645V7.86514C8.48645 5.4374 9.93176 4.09639 12.1454 4.09639C13.2056 4.09639 14.3142 4.28545 14.3142 4.28545V6.66826H13.0923C11.8892 6.66826 11.5138 7.41514 11.5138 8.18115V9.99951H14.2005L13.7708 12.7999H11.5138V19.5698C16.145 18.8425 19.6876 14.8347 19.6876 9.99951Z" fill="black" fill-opacity="0.69"/>
</g>
</g>
<defs>
<clipPath id="clip0_1_1258">
<path d="M0 0L20 0V20H0L0 0Z" fill="white"/>
</clipPath>
</defs>
</svg>
