<svg width="32" height="42" viewBox="0 0 32 42" fill="none" xmlns="http://www.w3.org/2000/svg">
<g id="Frame">
<g clip-path="url(#clip0_1_1276)">
<path id="Vector" d="M26.5269 23.7782C26.5105 20.7677 27.8722 18.4954 30.6285 16.822C29.0863 14.6154 26.7566 13.4013 23.6805 13.1634C20.7684 12.9338 17.5856 14.8615 16.4207 14.8615C15.1903 14.8615 12.3684 13.2455 10.1536 13.2455C5.57627 13.3193 0.711844 16.8958 0.711844 24.172C0.711844 26.3212 1.10559 28.5415 1.89309 30.8329C2.94308 33.8434 6.7329 41.2262 10.6868 41.1031C12.754 41.0539 14.2141 39.6348 16.9047 39.6348C19.5133 39.6348 20.8668 41.1031 23.1719 41.1031C27.1586 41.0457 30.5875 34.3356 31.5882 31.3169C26.2398 28.7985 26.5269 23.9341 26.5269 23.7782ZM21.884 10.3088C24.1234 7.65097 23.9184 5.23107 23.8527 4.36154C21.8758 4.47638 19.5871 5.70685 18.2828 7.22442C16.8473 8.84862 16.0024 10.8584 16.1829 13.1224C18.3239 13.2865 20.2762 12.1873 21.884 10.3088Z" fill="#100101"/>
</g>
</g>
<defs>
<clipPath id="clip0_1_1276">
<path d="M0 0L31.4998 0V41.9998H0L0 0Z" fill="white"/>
</clipPath>
</defs>
</svg>
