<svg width="45" height="45" viewBox="0 0 45 45" fill="none" xmlns="http://www.w3.org/2000/svg">
<g id="HP logo" clip-path="url(#clip0_1_96)">
<path id="Vector" d="M22.5005 45.0005C22.2768 45.0005 22.0541 44.9965 21.8317 44.9901L26.4301 32.3528H32.7582C33.8689 32.3528 35.0882 31.4989 35.4681 30.4557L40.4566 16.753C41.2729 14.5095 39.9879 12.6741 37.6007 12.6741H28.8215L21.4557 32.9154H21.4529L17.2768 44.3896C7.36966 42.0344 0.000492624 33.1284 0.000492624 22.5005C0.000492624 12.1791 6.95049 3.48174 16.4258 0.831117L12.1169 12.6741H12.1157L4.95257 32.3528L9.72101 32.3532L15.8127 15.6313H19.3965L13.3049 32.3532L18.0715 32.354L23.7484 16.753C24.5651 14.5095 23.28 12.6741 20.895 12.6741H16.8866L21.489 0.0241384C21.8244 0.00924262 22.1613 0.000492624 22.5003 0.000492624C34.9267 0.000492624 45.0003 10.074 45.0003 22.5005C45.0003 34.9268 34.9267 45.0005 22.5003 45.0005H22.5005ZM36.1142 15.6192H32.5314L27.514 29.3857H31.0969L36.1142 15.6192Z" fill="black"/>
</g>
<defs>
<clipPath id="clip0_1_96">
<rect width="44.6032" height="44.6032" fill="white" transform="scale(1.00889)"/>
</clipPath>
</defs>
</svg>
