<svg width="52" height="15" viewBox="0 0 52 15" fill="none" xmlns="http://www.w3.org/2000/svg">
<path id="Vector" d="M9.12756 8.33617H3.04218V14.3423H0V0.275834H3.04218V6.04525H9.12756V0.275834H12.1697V14.3433H9.12756V8.33617ZM19.5189 14.6191C16.4767 14.6191 13.9872 13.3954 13.9471 10.0353H16.9893C17.0294 11.5368 17.898 12.4456 19.557 12.4456C20.7807 12.4456 22.205 11.8137 22.205 10.4395C22.205 9.33318 21.2572 9.01722 19.6774 8.53376L18.6503 8.25693C16.4376 7.62502 14.2249 6.75539 14.2249 4.22676C14.2249 1.10534 17.1488 0.0381152 19.7968 0.0381152C22.523 0.0381152 24.8942 0.985977 24.9323 4.1084H21.8891C21.7707 2.84459 21.0195 2.10235 19.5972 2.10235C18.4517 2.10235 17.3444 2.70416 17.3444 3.95995C17.3444 4.98706 18.2922 5.30401 20.2682 5.93592L21.4538 6.292C23.864 7.04427 25.4057 7.87277 25.4057 10.2439C25.3656 13.4055 22.2843 14.6302 19.5179 14.6302L19.5189 14.6191ZM27.1068 0.315954H32.0066C32.9154 0.275833 33.8642 0.315955 34.773 0.474434C36.4721 0.869627 37.776 1.97597 37.776 3.87269C37.776 5.69018 36.6306 6.59892 34.9706 7.03424C36.8763 7.39031 38.2806 8.33817 38.2806 10.4325C38.2806 13.6422 35.119 14.3443 32.6696 14.3443H27.1379L27.1068 0.315954ZM32.0066 6.16361C33.3507 6.16361 34.7329 5.88677 34.7329 4.25785C34.7329 2.79544 33.469 2.40025 32.2052 2.40025H30.0718V6.15458L32.0066 6.16361ZM32.2835 12.249C33.7058 12.249 35.0889 11.933 35.0889 10.1928C35.0889 8.45252 33.9033 8.13656 32.4409 8.13656H30.0307V12.246L32.2835 12.249ZM46.1924 14.6201C41.6487 14.6201 39.6326 11.7354 39.6326 7.42843C39.6326 3.12142 41.8855 0 46.3499 0C49.1554 0 51.8816 1.26382 51.9609 4.42536H48.7993C48.6408 3.00307 47.693 2.29192 46.3489 2.29192C43.5826 2.29192 42.7531 5.25587 42.7531 7.50767C42.7531 9.75946 43.5826 12.3683 46.2306 12.3683C47.6147 12.3683 48.6408 11.6161 48.8384 10.1948H52C51.684 13.4346 49.1153 14.6201 46.1824 14.6201H46.1924Z" fill="black"/>
</svg>
