<svg width="82" height="42" viewBox="0 0 82 42" fill="none" xmlns="http://www.w3.org/2000/svg">
<path id="Vector" fill-rule="evenodd" clip-rule="evenodd" d="M74.1376 34.5118C74.1376 38.407 71.0315 41.564 66.7063 41.564C62.3811 41.564 59.2788 38.407 59.2788 34.5118C59.2788 30.6233 62.3773 27.4645 66.7025 27.4645C71.0277 27.4645 74.1325 30.6233 74.1325 34.5124L74.1376 34.5118ZM40.3851 30.802C40.3314 30.7849 38.8371 30.3858 37.6091 30.3858C36.1876 30.3858 35.4149 30.8467 35.4149 31.5017C35.4149 32.3306 36.457 32.619 37.0419 32.7977L38.0201 33.0995C40.3244 33.8084 41.3735 35.3364 41.3735 36.9947C41.3735 40.4149 38.2668 41.564 35.5509 41.564C33.6621 41.564 31.8947 41.2273 31.7201 41.1918V38.0587C32.0331 38.1352 33.521 38.5656 35.0715 38.5656C36.837 38.5656 37.6496 38.0636 37.6496 37.2941C37.6496 36.6036 36.9477 36.2044 36.0675 35.9375C35.8525 35.8641 35.5287 35.7661 35.3087 35.6988C33.332 35.0927 31.6854 33.9663 31.6854 31.7136C31.6854 29.1669 33.6532 27.4541 36.9249 27.4541C38.6525 27.4541 40.2789 27.86 40.3838 27.8887V30.7965L40.3851 30.802ZM26.9245 41.3209H23.3751V27.7063H26.9251L26.9245 41.3209ZM79.3917 39.5285V39.7428H78.7657V41.3209H78.5064V39.7415H77.8772V39.5285H79.3949H79.3917ZM79.5245 39.5285H79.9273L80.4806 40.9977H80.4901L81.0263 39.5285H81.4247V41.3209H81.1591V39.8499H81.1528L80.59 41.3209H80.3434L79.7996 39.8505H79.7869V41.3258H79.527V39.5322L79.5245 39.5285ZM55.5411 31.607C55.3956 31.5348 54.2511 30.8786 52.5539 30.8786C50.2604 30.8786 48.6688 32.4261 48.6688 34.5118C48.6688 36.5356 50.1915 38.1462 52.5539 38.1462C54.2233 38.1462 55.3849 37.5047 55.5404 37.4239V41.0785C55.0934 41.2009 53.8824 41.564 52.306 41.564C48.3147 41.564 44.8115 38.8992 44.8115 34.5118C44.8115 30.4458 47.9821 27.4645 52.3079 27.4645C53.9722 27.4645 55.2059 27.8563 55.5417 27.953V31.6077L55.5411 31.607ZM18.496 31.607C18.3531 31.5348 17.2123 30.8786 15.5145 30.8786C13.2128 30.8786 11.6256 32.4261 11.6256 34.5118C11.6256 36.5356 13.1495 38.1462 15.5145 38.1462C17.1839 38.1462 18.3411 37.5047 18.4928 37.4239V41.0785C18.0502 41.2009 16.8424 41.564 15.2552 41.564C11.2652 41.564 7.76578 38.8992 7.76578 34.5118C7.76578 30.4458 10.9357 27.4645 15.2546 27.4645C16.924 27.4645 18.157 27.8563 18.4922 27.953V31.6077L18.496 31.607ZM66.7057 30.9306C64.6 30.9306 63.0362 32.5345 63.0362 34.5118C63.0362 36.494 64.6044 38.0966 66.7101 38.0966C68.8145 38.0966 70.3821 36.494 70.3821 34.5124C70.3821 32.5351 68.8139 30.9312 66.7114 30.9312L66.7057 30.9306ZM62.0769 1.96403C62.0769 1.02619 61.2903 0.264648 60.3203 0.264648C59.349 0.264648 58.5643 1.02619 58.5643 1.96403V20.0444C58.5643 20.9872 59.3484 21.7499 60.3159 21.7499C61.2834 21.7499 62.0712 20.9878 62.0712 20.0444V1.96403H62.0769ZM23.3637 1.96403C23.3637 1.02619 22.5721 0.264648 21.6014 0.264648C20.6314 0.264648 19.8397 1.02619 19.8397 1.96403V20.0444C19.8397 20.9872 20.6301 21.7499 21.5976 21.7499C22.567 21.7499 23.3587 20.9878 23.3587 20.0444V1.96403H23.3637ZM81.424 13.0749C81.424 12.1352 80.6355 11.3743 79.668 11.3743C78.6968 11.3743 77.9089 12.1352 77.9089 13.0743V16.6493C77.9089 17.5982 78.6993 18.3573 79.6731 18.3573C80.6406 18.3573 81.431 17.5982 81.431 16.6542V13.0792L81.424 13.0749ZM42.7109 13.0749C42.7109 12.1352 41.9242 11.3743 40.9593 11.3743C39.9893 11.3743 39.1976 12.1352 39.1976 13.0743V16.6493C39.1976 17.5982 39.9893 18.3573 40.9593 18.3573C41.9242 18.3573 42.7109 17.5982 42.7109 16.6542V13.0792V13.0749ZM4.00778 13.0749C4.00778 12.1352 3.21735 11.3743 2.24608 11.3743C1.2767 11.3743 0.484375 12.1352 0.484375 13.0737V16.6487C0.484375 17.5933 1.2767 18.3542 2.24608 18.3542C3.21735 18.3542 4.00778 17.5933 4.00778 16.6487V13.0737V13.0749ZM13.6864 8.38322C13.6864 7.44477 12.896 6.68139 11.9247 6.68139C10.954 6.68139 10.1624 7.44477 10.1624 8.38322V16.6475C10.1624 17.5921 10.954 18.353 11.9247 18.353C12.8953 18.353 13.6864 17.5921 13.6864 16.6475V8.38322ZM33.0424 8.38322C33.0424 7.44477 32.2519 6.68139 31.2807 6.68139C30.3106 6.68139 29.519 7.44477 29.519 8.38322V16.6475C29.519 17.5921 30.3106 18.353 31.2807 18.353C32.2519 18.353 33.043 17.5921 33.043 16.6475L33.0424 8.38322ZM52.3933 8.38322C52.3933 7.44477 51.6066 6.68139 50.6366 6.68139C49.6691 6.68139 48.8806 7.44477 48.8806 8.38322V16.6475C48.8806 17.5921 49.6685 18.353 50.6366 18.353C51.6066 18.353 52.3933 17.5921 52.3933 16.6475V8.38322ZM71.7619 8.38322C71.7619 7.44477 70.9752 6.68139 69.9825 6.68139C69.0118 6.68139 68.2258 7.44477 68.2258 8.38322V16.6475C68.2258 17.5921 69.0118 18.353 69.9825 18.353C70.9752 18.353 71.7612 17.5921 71.7612 16.6475L71.7619 8.38322Z" fill="black"/>
</svg>
