<svg width="127" height="14" viewBox="0 0 127 14" fill="none" xmlns="http://www.w3.org/2000/svg">
<g id="surface1">
<path id="Vector" d="M26.4884 3.69378C26.3552 3.60633 26.2264 3.53974 26.112 3.48759C26.001 3.43705 25.9046 3.39934 25.8303 3.36805C25.7458 3.33114 25.6647 3.38249 25.6698 3.47074C25.7799 5.53264 25.0501 6.79787 23.6819 7.87695C22.5415 8.77553 20.9863 9.5706 18.4059 9.96212H18.3931C18.0747 10.0103 17.7418 10.052 17.3919 10.0865C16.3317 10.1932 15.2639 10.1282 14.4445 9.96292C11.9708 9.4639 10.4233 8.04303 11.7549 6.93024C11.8675 6.83557 11.7335 6.67993 11.6123 6.76417C9.93676 7.91787 10.6836 8.8012 11.5031 9.48556C11.7182 9.66527 12.2576 9.96934 12.2576 9.96934C14.7876 11.233 19.8681 11.0733 23.658 10.0327C23.7408 10.0095 23.8227 9.98619 23.9038 9.96533V9.96292C27.9429 8.79237 30.676 6.47294 26.4884 3.69378Z" fill="#231F20"/>
<path id="Vector_2" d="M13.6614 0.681977C17.4359 1.68084 19.3437 2.63878 20.5788 3.75878C21.7345 4.80738 22.3508 5.9659 21.3547 7.42447C20.1324 9.21199 14.7156 9.8458 12.7285 8.14895C12.6167 8.05347 12.4664 8.19227 12.5663 8.29817C13.7459 9.54976 15.5444 9.65806 17.1389 9.65486C25.7463 9.6356 28.2388 -0.378658 14.5679 0.360257C14.1352 0.383523 13.8612 0.442893 13.6734 0.473381C13.5402 0.495043 13.5325 0.647479 13.6614 0.681977Z" fill="#231F20"/>
<path id="Vector_3" d="M2.55648 4.34312C6.2149 3.24959 8.87805 2.91904 11.513 2.95755C13.979 2.99365 16.4458 3.32179 18.602 4.50839C21.0073 5.83057 19.7551 8.40835 15.5854 8.39792C15.4326 8.39792 15.4267 8.60491 15.5795 8.61213C18.3322 8.73649 19.435 8.04491 20.2494 7.34932C22.4524 5.46874 19.1858 2.99205 15.1134 1.81749C10.9369 0.612439 5.50217 0.601207 2.67769 3.7438C2.5838 3.8473 2.52831 3.93956 2.48905 4.01979C2.45405 4.0928 2.43613 4.15377 2.41564 4.20191C2.37723 4.29578 2.45405 4.3736 2.55648 4.34312Z" fill="#231F20"/>
<path id="Vector_4" d="M5.54159 6.38019C6.82366 5.36849 8.63068 4.48917 11.8316 4.16906C15.9509 3.75828 19.2619 5.82821 17.4686 7.32689C17.3559 7.42076 17.4891 7.57561 17.6111 7.49297C19.2875 6.33847 18.5398 5.45594 17.7204 4.77078C15.601 2.99931 9.78386 3.0651 5.5655 4.22442C1.69027 5.28826 -1.11457 7.3991 1.93183 9.96565C2.16486 10.1622 2.43203 10.3612 2.73505 10.5618C2.8682 10.65 2.99026 10.7326 3.1055 10.7856C3.21561 10.8361 3.30779 10.8851 3.38632 10.9043C3.48704 10.9284 3.55874 10.8746 3.55448 10.7864C3.53826 10.496 3.53911 10.2216 3.55618 9.96565H3.55021L3.55618 9.96164C3.66117 8.37229 4.36622 7.30684 5.54159 6.38019Z" fill="#231F20"/>
<path id="Vector_5" d="M26.6679 9.9127C26.6175 9.92714 26.5671 9.94238 26.5176 9.96003H26.5057C22.9309 11.0159 20.307 11.3352 17.7105 11.2975C15.4041 11.2638 13.096 10.9741 11.0415 9.96485H11.0398C10.8989 9.89505 10.7607 9.82284 10.6224 9.74742C8.21702 8.42444 9.46921 5.84746 13.6389 5.85709C13.7917 5.85709 13.7977 5.6501 13.6449 5.64368C10.8921 5.51852 9.7893 6.2101 8.97414 6.90569C7.86364 7.854 8.14361 8.95395 9.2157 9.96485H9.21912C10.2741 10.9549 12.094 11.8559 14.1101 12.4375C18.2875 13.6426 23.7213 13.6538 26.5467 10.512C26.6406 10.4077 26.6969 10.3154 26.7353 10.236C26.7703 10.1622 26.7882 10.1012 26.8087 10.0531C26.8224 10.0202 26.8215 9.98891 26.8104 9.96485C26.7899 9.91831 26.7344 9.89264 26.6679 9.9127Z" fill="#231F20"/>
<g id="Clip path group">
<mask id="mask0_1511_107" style="mask-type:luminance" maskUnits="userSpaceOnUse" x="5" y="4" width="12" height="10">
<g id="clip1">
<path id="Vector_6" d="M5.00873 4.42773H16.8085V13.9349H5.00873V4.42773Z" fill="white"/>
</g>
</mask>
<g mask="url(#mask0_1511_107)">
<g id="Group">
<path id="Vector_7" d="M15.5624 13.5738C11.7879 12.5742 9.88016 11.6162 8.64589 10.497C8.45299 10.3221 8.27544 10.1448 8.11753 9.96432V9.96271C7.32883 9.05371 7.03862 8.04603 7.86914 6.83135C9.09146 5.04383 14.5082 4.41002 16.4954 6.10607C16.6072 6.20155 16.7574 6.06195 16.6567 5.95604C15.4779 4.70526 13.6794 4.59695 12.0841 4.60016C7.52345 4.61059 4.67934 7.42746 5.04808 9.96432C5.375 12.214 8.2302 14.243 14.6559 13.8956C15.0887 13.8715 15.3635 13.8129 15.5505 13.7816C15.6828 13.76 15.6913 13.6083 15.5624 13.5738Z" fill="#231F20"/>
</g>
</g>
</g>
<path id="Vector_8" d="M38.8138 8.20509C38.3708 9.17426 37.5471 9.65805 36.4119 9.65805C34.8268 9.65805 34.1593 8.81403 34.5127 7.24955C34.8669 5.68508 35.9185 4.82822 37.5036 4.82822C38.7455 4.82822 39.3371 5.42433 39.2065 6.52909H43.4334C43.8789 3.97137 42.013 2.53125 38.0234 2.53125C33.77 2.53125 31.2383 4.14547 30.5367 7.24955C29.8351 10.3536 31.6361 11.9671 35.8895 11.9671C39.6938 11.9671 42.1419 10.6633 43.0808 8.20509H38.8138Z" fill="#231F20"/>
<path id="Vector_9" d="M108.259 7.24955C107.906 8.81403 106.856 9.65805 105.271 9.65805C103.686 9.65805 103.018 8.81403 103.372 7.24955C103.726 5.68508 104.778 4.82822 106.364 4.82822C107.948 4.82822 108.613 5.68508 108.259 7.24955ZM107.019 2.53125C102.766 2.53125 100.235 4.14547 99.5324 7.24955C98.8307 10.3536 100.632 11.9671 104.885 11.9671C109.138 11.9671 111.67 10.3536 112.372 7.24955C113.073 4.14547 111.272 2.53125 107.019 2.53125Z" fill="#231F20"/>
<path id="Vector_10" d="M121.8 2.76855L120.633 7.93374L118.116 2.76855H113.743L111.716 11.7326H115.203L116.391 6.48078L119.205 11.7326H123.353L125.38 2.76855H121.8Z" fill="#231F20"/>
<path id="Vector_11" d="M95.9099 5.8229C95.764 6.46794 95.2091 6.64284 94.1925 6.64284H92.0398L92.4017 5.04066H94.4623C95.5455 5.04066 96.0644 5.14014 95.9099 5.8229ZM100.138 5.17705C100.334 4.30816 100.105 3.62541 99.4821 3.22827C98.9529 2.88088 97.9346 2.76855 96.4289 2.76855H89.1641L87.1369 11.7326H90.8884L91.5063 9.00159H93.712C94.6236 9.00159 94.9155 9.22463 94.8438 9.89535C94.7653 10.6519 94.487 11.2986 94.6799 11.7326H98.7873L98.8181 11.5962C98.4169 11.3844 98.5825 10.6519 98.8087 9.36102C98.9854 8.34291 98.9794 7.84629 98.0524 7.44995C99.1236 7.08972 99.8987 6.23287 100.138 5.17705Z" fill="#231F20"/>
<path id="Vector_12" d="M88.8266 2.76713H78.2192L77.9299 4.04759C77.3537 2.99578 75.6432 2.53125 72.7683 2.53125C69.0433 2.53125 67.0852 3.36323 66.6217 5.4123C66.282 6.91419 67.2389 7.82079 69.4658 8.08073L72.1538 8.40406C73.0159 8.50274 73.4017 8.72738 73.3146 9.11168C73.2165 9.54572 72.6659 9.75753 71.6758 9.75753C70.6591 9.75753 70.1419 9.47191 70.1829 9.00016H65.705C65.6743 9.14618 65.6598 9.28578 65.6529 9.42217H59.0249L59.2913 8.2428H64.4827L64.982 6.03247H59.7914L60.033 4.96542H66.4391L66.9359 2.76713H56.8313L54.804 11.7312H65.2253L65.6657 9.78481C65.8373 11.1993 67.4873 12.004 70.5729 12.004C74.9577 12.004 77.2718 11.0605 77.7797 8.81403C78.1143 7.337 77.2641 6.47935 75.2283 6.19373L71.9617 5.74685C71.039 5.6233 70.602 5.51098 70.6916 5.11384C70.7701 4.76645 71.2882 4.51774 72.1606 4.51774C73.3095 4.51774 73.8626 4.81539 73.8285 5.37459H78.1219C78.139 5.25825 78.1475 5.14754 78.151 5.03923H81.1538L79.6396 11.7312H83.339L84.8515 5.03923H88.3128L88.8266 2.76713Z" fill="#231F20"/>
<path id="Vector_13" d="M51.5164 5.8229C51.3704 6.46794 50.8156 6.64284 49.7981 6.64284H47.6454L48.0082 5.04066H50.0687C51.1519 5.04066 51.6709 5.14014 51.5164 5.8229ZM55.7441 5.17705C55.9404 4.30816 55.7117 3.62541 55.0886 3.22827C54.5594 2.88088 53.5411 2.76855 52.0353 2.76855H44.7697L42.7433 11.7326H46.4948L47.1128 9.00159H49.3184C50.2292 9.00159 50.522 9.22463 50.4503 9.89535C50.3709 10.6519 50.0935 11.2986 50.2855 11.7326H54.3929L54.4245 11.5962C54.0233 11.3844 54.1889 10.6519 54.4143 9.36102C54.5918 8.34291 54.585 7.84629 53.658 7.44995C54.7301 7.08972 55.5051 6.23287 55.7441 5.17705Z" fill="#231F20"/>
<path id="Vector_14" d="M125.129 10.5986V10.2207H125.397C125.535 10.2207 125.681 10.2488 125.681 10.4004C125.681 10.5882 125.531 10.5986 125.364 10.5986H125.129ZM125.886 10.4117C125.886 10.1702 125.734 10.0635 125.427 10.0635H124.932V11.2862H125.129V10.7567H125.356L125.698 11.2862H125.919L125.549 10.7478C125.741 10.7254 125.886 10.6299 125.886 10.4117Z" fill="#231F20"/>
<path id="Vector_15" d="M125.368 11.5576C124.852 11.5576 124.449 11.1821 124.449 10.6719C124.449 10.1696 124.852 9.79094 125.368 9.79094C125.877 9.79094 126.28 10.1696 126.28 10.6719C126.28 11.1821 125.877 11.5576 125.368 11.5576ZM125.368 9.61523C124.748 9.61523 124.222 10.0629 124.222 10.6719C124.222 11.2856 124.748 11.7333 125.368 11.7333C125.982 11.7333 126.507 11.2856 126.507 10.6719C126.507 10.0629 125.982 9.61523 125.368 9.61523Z" fill="#231F20"/>
</g>
</svg>
