<svg width="46" height="46" viewBox="0 0 46 46" fill="none" xmlns="http://www.w3.org/2000/svg">
<g id="HP logo" clip-path="url(#clip0_1511_94)">
<path id="Vector" d="M23.1185 45.091C22.8968 45.091 22.6761 45.0871 22.4557 45.0807L27.0135 32.5548H33.2858C34.3867 32.5548 35.5952 31.7085 35.9718 30.6745L40.9164 17.0926C41.7254 14.8689 40.4517 13.0497 38.0856 13.0497H29.3838L22.0829 33.1125H22.0802L17.9409 44.4856C8.12109 42.1511 0.816895 33.3236 0.816895 22.7894C0.816895 12.5591 7.70562 3.93835 17.0974 1.31109L12.8265 13.0497H12.8253L5.72532 32.5548L10.4517 32.5553L16.4897 15.9808H20.0419L14.004 32.5553L18.7286 32.5561L24.3554 17.0926C25.1649 14.8689 23.8911 13.0497 21.5272 13.0497H17.5542L22.116 0.51123C22.4484 0.496466 22.7823 0.487793 23.1183 0.487793C35.4352 0.487793 45.4199 10.4725 45.4199 22.7894C45.4199 35.1062 35.4352 45.091 23.1183 45.091H23.1185ZM36.6122 15.9688H33.061L28.0879 29.6139H31.6392L36.6122 15.9688Z" fill="black"/>
</g>
<defs>
<clipPath id="clip0_1511_94">
<rect width="44.6032" height="44.6032" fill="white" transform="translate(0.816406 0.487305)"/>
</clipPath>
</defs>
</svg>
