<svg width="96" height="96" viewBox="0 0 96 96" fill="none" xmlns="http://www.w3.org/2000/svg">
<g id="jabraenhance.com logo">
<g id="Group">
<path id="Vector" d="M53.6698 43.3302C53.9052 43.3302 53.9052 43.0948 53.9052 43.0948V42.3886C53.9052 42.1532 53.6698 42.1532 53.6698 42.1532C48.2555 42.1532 48.2555 43.3302 48.2555 44.0365V50.3924C48.2555 50.6278 48.4909 50.6278 48.4909 50.6278H50.6095C50.8449 50.6278 50.8449 50.3924 50.8449 50.3924V44.5073C50.8449 44.0365 50.8449 43.3302 53.6698 43.3302ZM32.2479 48.98V44.0365C32.2479 43.3302 32.2479 42.1532 26.8335 42.1532C21.4192 42.1532 21.4192 43.3302 21.4192 44.0365V44.5073C21.4192 44.7427 21.6546 44.7427 21.6546 44.7427H23.7732C24.0086 44.7427 24.0086 44.5073 24.0086 44.5073C24.0086 44.2719 24.0086 43.5657 26.3627 43.5657C28.9522 43.5657 28.9522 44.2719 28.9522 44.5073V45.9197C28.7168 45.6843 27.7751 45.6843 26.8335 45.6843C21.4192 45.6843 21.4192 46.8613 21.4192 47.5676V48.98C21.4192 49.6862 21.4192 50.8632 26.8335 50.8632C32.2479 50.8632 32.2479 49.6862 32.2479 48.98ZM29.1876 48.5092C29.1876 48.7446 29.1876 49.4508 26.5981 49.4508C24.0086 49.4508 24.0086 48.7446 24.0086 48.5092V48.0384C24.0086 47.803 24.0086 47.0967 26.5981 47.0967C29.1876 47.0967 29.1876 47.803 29.1876 48.0384V48.5092ZM45.666 48.7446V43.8011C45.666 43.0948 45.666 41.9178 40.2517 41.9178C39.0746 41.9178 38.3684 41.9178 37.6622 42.1532V38.8575C37.6622 38.6221 37.4268 38.6221 37.4268 38.6221H35.3081C35.0727 38.6221 35.0727 38.8575 35.0727 38.8575V48.7446C35.0727 49.4508 35.0727 50.6278 40.4871 50.6278C45.666 50.6278 45.666 49.2154 45.666 48.7446ZM37.4268 48.5092V44.5073C37.4268 44.2719 37.4268 43.5657 40.0163 43.5657C42.6057 43.5657 42.6057 44.2719 42.6057 44.5073V48.5092C42.6057 48.7446 42.6057 49.4508 40.0163 49.4508C37.4268 49.4508 37.4268 48.7446 37.4268 48.5092ZM60.0258 50.8632C65.4401 50.8632 65.4401 49.6862 65.4401 48.98V44.0365C65.4401 43.3302 65.4401 42.1532 60.0258 42.1532C54.6114 42.1532 54.6114 43.3302 54.6114 44.0365V44.5073C54.6114 44.7427 54.8468 44.7427 54.8468 44.7427H57.4363C57.6717 44.7427 57.6717 44.5073 57.6717 44.5073C57.6717 44.2719 57.6717 43.5657 60.0258 43.5657C62.6152 43.5657 62.6152 44.2719 62.6152 44.5073V45.9197C62.1444 45.6843 61.2028 45.6843 60.0258 45.6843C54.6114 45.6843 54.6114 46.8613 54.6114 47.5676V48.98C54.6114 49.6862 54.6114 50.8632 60.0258 50.8632ZM57.6717 48.0384C57.6717 47.803 57.6717 47.0967 60.2612 47.0967C62.8506 47.0967 62.8506 47.803 62.8506 48.0384V48.5092C62.8506 48.7446 62.8506 49.4508 60.2612 49.4508C57.6717 49.4508 57.6717 48.7446 57.6717 48.5092V48.0384ZM18.5943 38.8575H16.2402C16.0048 38.8575 16.0048 39.0929 16.0048 39.0929V48.5092C16.0048 48.7446 16.0048 49.4508 13.4154 49.4508C10.8259 49.4508 10.8259 48.98 10.8259 48.5092V48.0384C10.8259 47.803 10.5905 47.803 10.5905 47.803H8.00103C7.76562 47.803 7.76563 48.0384 7.76563 48.0384V48.98C7.76563 49.6862 7.76562 50.8632 13.18 50.8632C18.5943 50.8632 18.5943 49.6862 18.5943 48.98V39.0929C18.8297 38.8575 18.5943 38.8575 18.5943 38.8575ZM8.70725 55.336H8.00103C8.00103 55.336 7.76563 55.336 7.76563 55.5714V57.4546C7.76563 57.69 7.76562 57.69 8.00103 57.69H8.70725C8.70725 57.69 8.94266 57.69 8.94266 57.4546L8.70725 55.336ZM13.18 55.336H12.0029C11.7675 55.336 11.7675 55.336 11.7675 55.5714V57.4546C11.7675 57.69 11.7675 57.69 12.0029 57.69H12.9446C13.18 57.69 13.18 57.69 13.18 57.4546V55.336ZM16.9465 55.336H16.0048C16.0048 55.336 15.7694 55.336 15.7694 55.5714V57.4546C15.7694 57.69 15.7694 57.69 16.0048 57.69H16.9465C16.9465 57.69 17.1819 57.69 17.1819 57.4546L16.9465 55.336ZM20.9484 55.336H19.7713C19.5359 55.336 19.5359 55.336 19.5359 55.5714V57.4546C19.5359 57.69 19.5359 57.69 19.7713 57.69H20.9484C21.1838 57.69 21.1838 57.69 21.1838 57.4546L20.9484 55.336C21.1838 55.336 21.1838 55.336 20.9484 55.336ZM25.1857 55.336H23.7732C23.7732 55.336 23.5378 55.336 23.5378 55.5714V57.4546C23.5378 57.69 23.5378 57.69 23.7732 57.69H24.9503C24.9503 57.69 25.1857 57.69 25.1857 57.4546V55.5714C25.4211 55.336 25.1857 55.336 25.1857 55.336ZM29.1876 55.336H27.5397C27.3043 55.336 27.3043 55.5714 27.3043 55.5714V57.4546C27.3043 57.69 27.5397 57.69 27.5397 57.69H29.1876C29.423 57.69 29.423 57.4546 29.423 57.4546V55.5714C29.423 55.336 29.423 55.336 29.1876 55.336ZM32.9541 55.336H31.5416C31.3062 55.336 31.3062 55.5714 31.3062 55.5714V57.4546C31.3062 57.69 31.3062 57.69 31.5416 57.69H33.1895C33.4249 57.69 33.4249 57.4546 33.4249 57.4546V55.5714C33.1895 55.336 33.1895 55.336 32.9541 55.336ZM37.1914 55.336H35.3081C35.0727 55.336 35.0727 55.5714 35.0727 55.5714V57.4546C35.0727 57.69 35.3081 57.69 35.3081 57.69H37.1914C37.4268 57.69 37.4268 57.4546 37.4268 57.4546V55.5714C37.4268 55.336 37.1914 55.336 37.1914 55.336ZM41.1933 55.336H39.31C39.0746 55.336 39.0746 55.5714 39.0746 55.5714V57.4546C39.0746 57.69 39.31 57.69 39.31 57.69H41.1933C41.4287 57.69 41.4287 57.4546 41.4287 57.4546V55.5714C41.4287 55.336 41.4287 55.336 41.1933 55.336ZM45.4306 55.336H43.5473C43.3119 55.336 43.3119 55.5714 43.3119 55.5714V57.4546C43.3119 57.69 43.3119 57.69 43.5473 57.69H45.4306C45.666 57.69 45.666 57.4546 45.666 57.4546V55.5714L45.4306 55.336ZM49.4325 55.336H47.3138C47.0784 55.336 47.0784 55.5714 47.0784 55.5714V57.4546C47.0784 57.69 47.3138 57.69 47.3138 57.69H49.4325C49.6679 57.69 49.6679 57.4546 49.6679 57.4546V55.5714C49.9033 55.5714 49.6679 55.336 49.4325 55.336ZM79.0937 55.336H51.3157C51.0803 55.336 50.8449 55.5714 50.8449 55.8068V57.2192C50.8449 57.4546 51.0803 57.69 51.3157 57.69H79.0937C79.3291 57.69 79.5645 57.4546 79.5645 57.2192V55.8068C79.7999 55.5714 79.5645 55.336 79.0937 55.336ZM88.9807 38.3867C88.5099 38.3867 88.2745 38.6221 88.2745 39.0929V44.0365C88.2745 44.2719 88.0391 44.2719 88.0391 44.0365L82.6247 38.6221C82.3893 38.3867 82.1539 38.3867 81.6831 38.6221C81.4477 38.8575 81.4477 39.0929 81.4477 39.3283V46.1551C81.4477 46.6259 81.6831 46.8613 82.1539 46.8613C82.6247 46.8613 82.8602 46.6259 82.8602 46.1551V41.2116C82.8602 40.9762 83.0956 40.9762 83.0956 41.2116L88.5099 46.6259C88.7453 46.8613 88.7453 46.8613 88.9807 46.8613C89.2161 46.8613 89.2161 46.8613 89.4515 46.8613C89.6869 46.6259 89.6869 46.3905 89.6869 46.1551V39.3283C89.6869 38.8575 89.4515 38.3867 88.9807 38.3867ZM79.0937 41.9178H76.975C76.5042 41.9178 76.2688 42.1532 76.2688 42.624C76.2688 43.0948 76.5042 43.3302 76.975 43.3302H78.152C78.152 43.3302 78.3874 43.3302 78.3874 43.5657V45.2135C78.3874 45.2135 78.3874 45.4489 78.152 45.4489H75.5626C73.9147 45.4489 72.7377 44.0365 72.7377 42.624C72.7377 41.2116 73.9147 40.0346 75.5626 40.0346H78.8582C79.3291 40.0346 79.5645 39.7992 79.5645 39.3283C79.5645 38.8575 79.3291 38.6221 78.8582 38.6221H75.5626C73.4439 38.6221 71.5607 40.27 71.3253 42.624C71.0899 44.9781 73.2085 46.8613 75.3272 46.8613H78.8582C79.3291 46.8613 79.5645 46.6259 79.5645 46.1551V42.624C79.7999 42.1532 79.3291 41.9178 79.0937 41.9178Z" fill="black"/>
</g>
</g>
</svg>
