<svg width="69" height="31" viewBox="0 0 69 31" fill="none" xmlns="http://www.w3.org/2000/svg">
<path id="Vector" d="M41.5766 21.7732H50.8049V25.5267H37.1261V6.25159H41.5766V21.7732ZM60.5977 18.1779H64.2213V21.5503C63.5552 21.8043 62.2514 22.0583 61.0125 22.0583C57.0051 22.0583 55.6702 20.0235 55.6702 15.8891C55.6702 11.9438 56.9402 9.6212 60.9448 9.6212C63.1771 9.6212 64.4442 10.3211 65.494 11.6588L68.2654 9.1104C66.5721 6.69749 63.6201 5.96656 60.846 5.96656C54.6148 5.96656 51.3411 9.36721 51.3411 15.8553C51.3411 22.3123 54.2959 25.8117 60.8178 25.8117C63.8092 25.8117 66.7329 25.0497 68.3246 23.935V14.5825H60.5948L60.5977 18.1779ZM15.5256 0.977051C19.4858 0.977051 23.2837 2.55022 26.084 5.35048C28.8842 8.15075 30.4574 11.9487 30.4574 15.9089C30.4574 19.8691 28.8842 23.667 26.084 26.4673C23.2837 29.2675 19.4858 30.8407 15.5256 30.8407C11.5654 30.8407 7.76745 29.2675 4.96718 26.4673C2.16692 23.667 0.59375 19.8691 0.59375 15.9089C0.59375 11.9487 2.16692 8.15075 4.96718 5.35048C7.76745 2.55022 11.5654 0.977051 15.5256 0.977051ZM24.4435 24.8437C25.6185 23.6747 26.5502 22.2845 27.1847 20.7533C27.8193 19.2222 28.1441 17.5804 28.1405 15.923V15.24L27.5196 15.2429H19.2085V16.637H26.7209L26.7181 16.6793C26.5205 19.5147 25.2567 22.1702 23.1807 24.1116C21.1048 26.053 18.3707 27.1364 15.5284 27.1437C14.0544 27.1474 12.5943 26.8587 11.2326 26.2944C9.87094 25.7301 8.63469 24.9013 7.59543 23.856C6.55091 22.8163 5.7228 21.5799 5.15896 20.2183C4.59512 18.8566 4.30674 17.3967 4.31048 15.923C4.31048 12.9287 5.47884 10.1123 7.59543 7.99284C8.63468 6.94853 9.87059 6.12053 11.2317 5.5567C12.5929 4.99286 14.0523 4.70437 15.5256 4.70789L16.2368 4.71636V3.31941L15.5284 3.31094C12.1844 3.31468 8.97832 4.64455 6.61346 7.00888C4.24861 9.37321 2.91801 12.579 2.91353 15.923C2.91353 19.2926 4.22582 22.459 6.60769 24.8437C7.77623 26.0185 9.16599 26.9501 10.6967 27.5846C12.2273 28.2192 13.8686 28.5441 15.5256 28.5407C17.1835 28.5449 18.8258 28.2203 20.3575 27.5857C21.8892 26.9512 23.2799 26.0192 24.4491 24.8437M16.2368 21.1834V9.25997H14.8172V22.5804H19.2085V21.1834H16.2368ZM12.6668 11.1593C12.6679 10.7816 12.5569 10.4121 12.3478 10.0975C12.1387 9.78301 11.841 9.53761 11.4924 9.39244C11.1437 9.24726 10.7598 9.20884 10.3893 9.28204C10.0188 9.35524 9.6783 9.53677 9.41105 9.80363C9.14379 10.0705 8.96176 10.4107 8.88801 10.7811C8.81426 11.1515 8.85211 11.5355 8.99677 11.8843C9.14143 12.2332 9.38638 12.5313 9.7006 12.7408C10.0148 12.9504 10.3842 13.0619 10.7618 13.0614C11.2663 13.0606 11.75 12.8601 12.107 12.5036C12.464 12.1471 12.6653 11.6638 12.6668 11.1593Z" fill="black"/>
</svg>
