<svg width="110" height="29" viewBox="0 0 110 29" fill="none" xmlns="http://www.w3.org/2000/svg">
<g id="logitech logo" clip-path="url(#clip0_1511_98)">
<path id="Vector" d="M55.1724 2.65724H51.2048V6.79056H49.0667V9.77173H51.2048V20.213H55.1741V9.77173H57.3584V6.79056H55.1741V2.65724H55.1724ZM45.3466 0.747559C43.8892 0.747559 42.7425 1.71536 42.7425 2.9712C42.7425 4.19967 43.8892 5.16891 45.3466 5.16891C46.8653 5.16891 48.0138 4.19967 48.0138 2.9712C48.0138 1.71536 46.8653 0.747559 45.3466 0.747559ZM108.431 6.4766C107.749 6.4766 107.223 6.03014 107.223 5.45407C107.223 4.9068 107.752 4.46035 108.431 4.46035C109.083 4.46035 109.609 4.9068 109.609 5.45407C109.609 6.03014 109.083 6.4766 108.431 6.4766ZM108.431 4.30625C107.658 4.30625 107.037 4.82903 107.037 5.45551C107.037 6.11079 107.658 6.63358 108.431 6.63358C109.175 6.63358 109.796 6.11511 109.796 5.46703C109.796 4.84343 109.175 4.31489 108.431 4.31489V4.30625ZM61.9641 12.1019C62.4897 10.3233 64.1023 9.32816 66.1791 9.32816C68.2558 9.32816 69.8053 10.296 70.3019 12.1019H61.9641ZM66.2712 6.37003C61.4982 6.37003 57.8703 9.45921 57.8703 13.5666C57.8703 17.6222 61.1979 20.6048 66.3344 20.6048C69.2012 20.6048 71.7439 19.7147 73.6039 18.0413L70.9384 15.8176C69.6364 16.8632 68.2422 17.6222 66.4436 17.6222C64.2764 17.6222 62.6296 16.5852 62.075 14.8282H74.4401V14.0217C74.4401 9.44193 71.0954 6.38587 66.29 6.38587L66.2712 6.37003ZM101.394 6.37003C99.4415 6.37003 97.7674 6.99938 96.59 8.07232V1.11336H92.631V20.2102H96.607V12.9113C96.607 10.9786 98.0678 9.64212 100.481 9.64212C102.75 9.64212 103.987 10.8202 103.987 12.9113V20.213H107.958V12.3122C107.958 8.59655 105.194 6.37291 101.416 6.37291L101.394 6.37003ZM108.121 5.43103V5.01049H108.431C108.68 5.01049 108.772 5.0897 108.772 5.22076C108.772 5.35038 108.68 5.43103 108.431 5.43103H108.121ZM108.957 5.22076C108.957 4.96153 108.742 4.85496 108.431 4.85496H107.936V6.05751H108.121V5.59665H108.431L108.772 6.07191H108.989L108.619 5.57793C108.836 5.54912 108.96 5.44831 108.96 5.2366L108.957 5.22076ZM84.2812 9.61619C85.9536 9.61619 87.3188 10.3507 88.3768 11.3703L91.1327 9.06604C89.5832 7.41848 87.1345 6.37291 84.3444 6.37291C79.5407 6.37291 75.7575 9.45921 75.7575 13.4874C75.7575 17.517 79.5407 20.6048 84.3444 20.6048C87.1345 20.6048 89.5832 19.5578 91.1327 17.9116L88.3751 15.6073C87.3512 16.6011 85.9553 17.36 84.2522 17.36C81.7096 17.36 79.7642 15.675 79.7642 13.486C79.7642 11.2825 81.7267 9.61187 84.2864 9.61187L84.2812 9.61619ZM43.3944 20.2116H47.3619V6.78912H43.3944V20.2116ZM14.6882 17.3615C12.1456 17.3615 10.132 15.6621 10.132 13.4615C10.132 11.2897 12.1456 9.61619 14.6882 9.61619C17.2599 9.61619 19.2752 11.2897 19.2752 13.4874C19.2752 15.6866 17.2616 17.3615 14.6882 17.3615ZM14.6882 6.37291C9.8811 6.37291 6.09958 9.45921 6.09958 13.4874C6.09958 17.517 9.8811 20.6048 14.6882 20.6048C19.4919 20.6048 23.2717 17.517 23.2717 13.4874C23.2717 9.45921 19.4919 6.37291 14.6882 6.37291ZM0.582581 20.213H4.55182V1.11192H0.582581V20.213ZM33.2272 17.3615C30.6846 17.3615 28.671 15.6621 28.671 13.4615C28.671 11.2897 30.6846 9.61619 33.2272 9.61619C35.7989 9.61619 37.8142 11.2897 37.8142 13.4874C37.8142 15.6866 35.8006 17.3615 33.2238 17.3615H33.2272ZM41.6572 9.45921V6.79056H36.077C35.1794 6.53133 34.217 6.37291 33.2272 6.37291C28.4201 6.37291 24.6386 9.45921 24.6386 13.4874C24.6386 17.517 28.4201 20.6048 33.2255 20.6048C38.0207 20.6048 41.8091 17.517 41.8091 13.4874C41.8091 12.1279 41.3654 10.7943 40.4951 9.80054L41.6384 9.45921H41.6572ZM33.2272 24.9728C30.6846 24.9728 28.671 23.2994 28.671 21.1276H24.6386C24.6386 25.1572 28.4201 28.2421 33.2255 28.2421C38.0207 28.2421 41.8091 25.1572 41.8091 21.1276H37.7835C37.7835 23.2994 35.7665 24.9728 33.2272 24.9728Z" fill="black"/>
</g>
<defs>
<clipPath id="clip0_1511_98">
<rect width="109.214" height="28.0835" fill="white" transform="translate(0.582031 0.74707)"/>
</clipPath>
</defs>
</svg>
