<svg width="39" height="39" viewBox="0 0 39 39" fill="none" xmlns="http://www.w3.org/2000/svg">
<g id="poly logo" clip-path="url(#clip0_1511_84)">
<path id="Vector" d="M13.6527 26.0322C10.1002 26.0322 7.21885 23.1288 7.21885 19.5477C7.21885 15.9666 10.1002 13.0647 13.6527 13.0647C17.2053 13.0647 20.085 15.9666 20.085 19.5477C20.085 23.1288 17.2037 26.0322 13.6527 26.0322ZM31.0973 17.0543L24.2962 21.0121L24.3278 20.8253L24.3468 20.6607L24.369 20.3868V20.3662L24.3706 20.3472L24.3848 20.0131L24.3864 19.6459L24.3817 19.3799L24.3658 18.9999L24.3405 18.6516L24.3025 18.2733L24.2772 18.0675L24.2234 17.6986L24.16 17.3376L24.0856 16.9846L24.0033 16.6379L23.9447 16.4242L23.8466 16.0901L23.7358 15.7624L23.6392 15.4965L23.5125 15.1798L23.3748 14.8711L23.2291 14.5703L23.0724 14.2711L22.9062 13.9782L22.8904 13.9545L22.7115 13.6648L22.5215 13.3798L22.3204 13.1012L22.1067 12.8241L21.8803 12.5518L21.855 12.5201L21.6143 12.251L21.361 11.985L21.0951 11.7207L20.8117 11.4579L20.7895 11.4373L20.4903 11.1761L20.1721 10.9133L19.8523 10.6631L19.4945 10.3987L19.1066 10.1264L18.8169 9.93013L18.3737 9.64358L17.8734 9.3317L17.7072 9.23197L17.0929 8.86784L16.9409 8.77761L16.5546 8.5528L2.78606 0.540527V5.567L9.58723 9.52485L9.41308 9.58976L9.2611 9.65625L9.01413 9.7734L8.99513 9.7829L8.9793 9.7924L8.68484 9.94755L8.36821 10.128L8.1434 10.2658L7.82361 10.4716L7.53706 10.6679L7.23151 10.8895L7.0637 11.0162L6.77557 11.2457L6.49852 11.4816L6.23255 11.7222L5.97608 11.9676L5.82094 12.1259L5.58347 12.3792L5.35708 12.6373L5.1766 12.8589L4.96921 13.1265L4.77132 13.3988L4.58609 13.6774L4.40878 13.9624L4.23938 14.2553L4.22355 14.2822L4.06682 14.583L3.918 14.8901L3.77869 15.2052L3.64887 15.5281L3.52697 15.8622L3.51272 15.9017L3.4019 16.2453L3.29899 16.5983L3.20401 16.9624L3.1201 17.3424L3.11377 17.3741L3.03936 17.7635L2.97287 18.172L2.91904 18.5772L2.86996 19.0221L2.8288 19.4955L2.80664 19.8485L2.78131 20.3773L2.76548 20.9694L2.76073 21.1673L2.75439 21.8828V38.5359L7.07162 36.0219V28.1062L7.21727 28.2281L7.34867 28.3278L7.57506 28.4845L7.59089 28.494L7.60197 28.5019L7.88377 28.6824L8.2004 28.8692L8.42837 28.9959L8.76716 29.1732L9.07587 29.3252L9.42258 29.4835L9.60306 29.5595L9.94818 29.6972L10.2917 29.8239L10.6353 29.9363L10.9756 30.0376L11.1846 30.093L11.5234 30.1737L11.8622 30.2434L12.1361 30.2909L12.4733 30.3384L12.8089 30.3732L13.135 30.397L13.4723 30.4096H13.8316L14.172 30.397L14.514 30.3732L14.8559 30.3384L15.2042 30.2893L15.5541 30.2276L15.5857 30.2212L15.9404 30.1468L16.2982 30.0598L16.6623 29.9569L17.0312 29.8397L17.0517 29.8334L17.4285 29.702L17.8164 29.5547L18.1853 29.4028L18.5953 29.2207L19.0259 29.0181L19.333 28.8645L19.8048 28.6207L20.3272 28.3357L20.4887 28.2455L21.1125 27.8893L21.2613 27.8038L21.6476 27.579L35.4162 19.5683L31.0973 17.0543Z" fill="black"/>
</g>
<defs>
<clipPath id="clip0_1511_84">
<rect width="37.9954" height="37.9954" fill="white" transform="translate(0.0859375 0.540527)"/>
</clipPath>
</defs>
</svg>
