<svg width="125" height="17" viewBox="0 0 125 17" fill="none" xmlns="http://www.w3.org/2000/svg">
<path id="Vector" d="M67.258 3.66511H69.1666V13.0823H66.7411L63.918 8.73297C63.4409 7.97657 63.0035 7.18236 63.0035 7.18236H62.9638V13.0823H61.0552V3.66511H63.3216L66.6616 8.80861C66.9002 9.14899 67.0592 9.48937 67.2183 9.86757L67.258 3.66511ZM78.2721 7.52273H74.9321V3.62729H72.5066V13.0444H74.9321V9.03553H78.2721V13.0444H80.6975V3.62729H78.2721V7.52273ZM42.6852 8.95989H45.8264V7.56055H42.6852V5.10226H46.9V3.66511H40.2597V13.0823H46.9795V11.4938H42.6852V8.95989ZM33.9376 5.78302C33.7786 5.59392 33.8183 5.32918 33.9774 5.1779C34.0569 5.10226 34.1762 5.06444 34.2955 5.06444H37.9138V3.66511H33.6195C32.4664 3.62729 31.5121 4.45932 31.4326 5.5561C31.4326 6.1234 31.4724 6.5016 32.3471 7.37145L35.5678 10.5861C35.8064 10.7752 35.8462 11.0778 35.6871 11.3047C35.5678 11.456 35.4088 11.5316 35.21 11.4938H31.2338V13.0823H35.7667C37.0788 13.1201 38.1524 12.1746 38.1921 10.9265V10.8509C38.1921 10.2458 38.0331 9.79193 37.1583 8.95989L33.9376 5.78302ZM55.8066 9.82975C55.6476 9.45155 55.4488 9.11117 55.2102 8.77079L51.8702 3.62729H49.6038V13.0444H51.5123V7.18236H51.5521C51.5521 7.18236 51.9497 8.01439 52.4666 8.73297L55.2897 13.0823H57.7152V3.66511H55.8066V9.82975ZM109.525 8.95989H112.666V7.56055H109.525V5.10226H113.74V3.66511H107.06V13.0823H113.779V11.4938H109.485L109.525 8.95989ZM124.515 13.0823H121.891L119.982 9.22463H118.909V13.0823H116.483V3.66511H120.937C123.084 3.66511 124.078 4.91316 124.078 6.38814C124.078 7.52273 123.322 8.54387 122.169 8.92207L124.515 13.0823ZM121.97 6.42596C121.97 6.00994 121.692 5.10226 120.42 5.10226H118.909V7.78747H120.38C121.732 7.78747 121.97 6.84198 121.97 6.42596ZM100.738 5.78302C100.578 5.59392 100.618 5.32918 100.777 5.1779C100.857 5.10226 100.976 5.06444 101.095 5.06444H104.714V3.66511H100.419C99.2663 3.62729 98.312 4.45932 98.2325 5.5561C98.2325 6.1234 98.2723 6.5016 99.147 7.37145L102.368 10.5861C102.606 10.7752 102.646 11.0778 102.487 11.3047C102.368 11.456 102.209 11.5316 102.01 11.4938H98.0337V13.0823H102.567C103.879 13.1201 104.952 12.1746 104.992 10.9265V10.8509C104.992 10.2458 104.833 9.79193 103.958 8.95989L100.738 5.78302ZM86.463 8.95989H89.6042V7.56055H86.463V5.10226H90.6778V3.66511H83.9978V13.0823H90.7175V11.4938H86.4232L86.463 8.95989ZM93.4213 13.0823H95.8468V3.66511H93.4213V13.0823ZM0.617188 0.412598V16.2969H22.8838V0.412598H0.617188ZM12.8638 1.88757C11.5517 2.37923 10.2793 3.43819 9.24551 5.59392C8.96718 6.19904 8.37075 7.40927 8.13218 7.93875C6.06456 12.2502 5.03075 13.1579 1.88957 13.1579V1.62283H12.8241C12.9036 1.62283 12.9831 1.69847 12.9831 1.77411C12.9831 1.81193 12.9434 1.84975 12.8638 1.88757ZM21.6114 3.55165V15.0867H10.6769C10.5974 15.0867 10.5179 15.0111 10.5179 14.9354C10.5179 14.8598 10.5576 14.822 10.5974 14.7842C11.9096 14.2925 13.1819 13.2335 14.2157 11.0778C14.4941 10.4727 15.0905 9.26245 15.3291 8.73297C17.4364 4.45932 18.4703 3.55165 21.6114 3.55165Z" fill="black"/>
</svg>
